%TF.GenerationSoftware,KiCad,Pcbnew,(6.0.5)*%
%TF.CreationDate,2022-12-17T16:59:51+01:00*%
%TF.ProjectId,DS1245Y_FRAM,44533132-3435-4595-9f46-52414d2e6b69,rev?*%
%TF.SameCoordinates,Original*%
%TF.FileFunction,Legend,Top*%
%TF.FilePolarity,Positive*%
%FSLAX46Y46*%
G04 Gerber Fmt 4.6, Leading zero omitted, Abs format (unit mm)*
G04 Created by KiCad (PCBNEW (6.0.5)) date 2022-12-17 16:59:51*
%MOMM*%
%LPD*%
G01*
G04 APERTURE LIST*
%ADD10C,0.150000*%
%ADD11C,0.120000*%
G04 APERTURE END LIST*
D10*
X53929595Y-84397380D02*
X53929595Y-83397380D01*
X54167690Y-83397380D01*
X54310547Y-83445000D01*
X54405785Y-83540238D01*
X54453404Y-83635476D01*
X54501023Y-83825952D01*
X54501023Y-83968809D01*
X54453404Y-84159285D01*
X54405785Y-84254523D01*
X54310547Y-84349761D01*
X54167690Y-84397380D01*
X53929595Y-84397380D01*
X54881976Y-84349761D02*
X55024833Y-84397380D01*
X55262928Y-84397380D01*
X55358166Y-84349761D01*
X55405785Y-84302142D01*
X55453404Y-84206904D01*
X55453404Y-84111666D01*
X55405785Y-84016428D01*
X55358166Y-83968809D01*
X55262928Y-83921190D01*
X55072452Y-83873571D01*
X54977214Y-83825952D01*
X54929595Y-83778333D01*
X54881976Y-83683095D01*
X54881976Y-83587857D01*
X54929595Y-83492619D01*
X54977214Y-83445000D01*
X55072452Y-83397380D01*
X55310547Y-83397380D01*
X55453404Y-83445000D01*
X56405785Y-84397380D02*
X55834357Y-84397380D01*
X56120071Y-84397380D02*
X56120071Y-83397380D01*
X56024833Y-83540238D01*
X55929595Y-83635476D01*
X55834357Y-83683095D01*
X56786738Y-83492619D02*
X56834357Y-83445000D01*
X56929595Y-83397380D01*
X57167690Y-83397380D01*
X57262928Y-83445000D01*
X57310547Y-83492619D01*
X57358166Y-83587857D01*
X57358166Y-83683095D01*
X57310547Y-83825952D01*
X56739119Y-84397380D01*
X57358166Y-84397380D01*
X58215309Y-83730714D02*
X58215309Y-84397380D01*
X57977214Y-83349761D02*
X57739119Y-84064047D01*
X58358166Y-84064047D01*
X59215309Y-83397380D02*
X58739119Y-83397380D01*
X58691500Y-83873571D01*
X58739119Y-83825952D01*
X58834357Y-83778333D01*
X59072452Y-83778333D01*
X59167690Y-83825952D01*
X59215309Y-83873571D01*
X59262928Y-83968809D01*
X59262928Y-84206904D01*
X59215309Y-84302142D01*
X59167690Y-84349761D01*
X59072452Y-84397380D01*
X58834357Y-84397380D01*
X58739119Y-84349761D01*
X58691500Y-84302142D01*
X59881976Y-83921190D02*
X59881976Y-84397380D01*
X59548642Y-83397380D02*
X59881976Y-83921190D01*
X60215309Y-83397380D01*
X53929595Y-86007380D02*
X53929595Y-85340714D01*
X53929595Y-85531190D02*
X53977214Y-85435952D01*
X54024833Y-85388333D01*
X54120071Y-85340714D01*
X54215309Y-85340714D01*
X54929595Y-85959761D02*
X54834357Y-86007380D01*
X54643880Y-86007380D01*
X54548642Y-85959761D01*
X54501023Y-85864523D01*
X54501023Y-85483571D01*
X54548642Y-85388333D01*
X54643880Y-85340714D01*
X54834357Y-85340714D01*
X54929595Y-85388333D01*
X54977214Y-85483571D01*
X54977214Y-85578809D01*
X54501023Y-85674047D01*
X55405785Y-85340714D02*
X55405785Y-86340714D01*
X55405785Y-85388333D02*
X55501023Y-85340714D01*
X55691500Y-85340714D01*
X55786738Y-85388333D01*
X55834357Y-85435952D01*
X55881976Y-85531190D01*
X55881976Y-85816904D01*
X55834357Y-85912142D01*
X55786738Y-85959761D01*
X55691500Y-86007380D01*
X55501023Y-86007380D01*
X55405785Y-85959761D01*
X56453404Y-86007380D02*
X56358166Y-85959761D01*
X56310547Y-85864523D01*
X56310547Y-85007380D01*
X57262928Y-86007380D02*
X57262928Y-85483571D01*
X57215309Y-85388333D01*
X57120071Y-85340714D01*
X56929595Y-85340714D01*
X56834357Y-85388333D01*
X57262928Y-85959761D02*
X57167690Y-86007380D01*
X56929595Y-86007380D01*
X56834357Y-85959761D01*
X56786738Y-85864523D01*
X56786738Y-85769285D01*
X56834357Y-85674047D01*
X56929595Y-85626428D01*
X57167690Y-85626428D01*
X57262928Y-85578809D01*
X58167690Y-85959761D02*
X58072452Y-86007380D01*
X57881976Y-86007380D01*
X57786738Y-85959761D01*
X57739119Y-85912142D01*
X57691500Y-85816904D01*
X57691500Y-85531190D01*
X57739119Y-85435952D01*
X57786738Y-85388333D01*
X57881976Y-85340714D01*
X58072452Y-85340714D01*
X58167690Y-85388333D01*
X58977214Y-85959761D02*
X58881976Y-86007380D01*
X58691500Y-86007380D01*
X58596261Y-85959761D01*
X58548642Y-85864523D01*
X58548642Y-85483571D01*
X58596261Y-85388333D01*
X58691500Y-85340714D01*
X58881976Y-85340714D01*
X58977214Y-85388333D01*
X59024833Y-85483571D01*
X59024833Y-85578809D01*
X58548642Y-85674047D01*
X59453404Y-86007380D02*
X59453404Y-85340714D01*
X59453404Y-85435952D02*
X59501023Y-85388333D01*
X59596261Y-85340714D01*
X59739119Y-85340714D01*
X59834357Y-85388333D01*
X59881976Y-85483571D01*
X59881976Y-86007380D01*
X59881976Y-85483571D02*
X59929595Y-85388333D01*
X60024833Y-85340714D01*
X60167690Y-85340714D01*
X60262928Y-85388333D01*
X60310547Y-85483571D01*
X60310547Y-86007380D01*
X61167690Y-85959761D02*
X61072452Y-86007380D01*
X60881976Y-86007380D01*
X60786738Y-85959761D01*
X60739119Y-85864523D01*
X60739119Y-85483571D01*
X60786738Y-85388333D01*
X60881976Y-85340714D01*
X61072452Y-85340714D01*
X61167690Y-85388333D01*
X61215309Y-85483571D01*
X61215309Y-85578809D01*
X60739119Y-85674047D01*
X61643880Y-85340714D02*
X61643880Y-86007380D01*
X61643880Y-85435952D02*
X61691500Y-85388333D01*
X61786738Y-85340714D01*
X61929595Y-85340714D01*
X62024833Y-85388333D01*
X62072452Y-85483571D01*
X62072452Y-86007380D01*
X62405785Y-85340714D02*
X62786738Y-85340714D01*
X62548642Y-85007380D02*
X62548642Y-85864523D01*
X62596261Y-85959761D01*
X62691500Y-86007380D01*
X62786738Y-86007380D01*
X53929595Y-87617380D02*
X53929595Y-86950714D01*
X53929595Y-87141190D02*
X53977214Y-87045952D01*
X54024833Y-86998333D01*
X54120071Y-86950714D01*
X54215309Y-86950714D01*
X54929595Y-87569761D02*
X54834357Y-87617380D01*
X54643880Y-87617380D01*
X54548642Y-87569761D01*
X54501023Y-87474523D01*
X54501023Y-87093571D01*
X54548642Y-86998333D01*
X54643880Y-86950714D01*
X54834357Y-86950714D01*
X54929595Y-86998333D01*
X54977214Y-87093571D01*
X54977214Y-87188809D01*
X54501023Y-87284047D01*
X55310547Y-86950714D02*
X55548642Y-87617380D01*
X55786738Y-86950714D01*
X56167690Y-87522142D02*
X56215309Y-87569761D01*
X56167690Y-87617380D01*
X56120071Y-87569761D01*
X56167690Y-87522142D01*
X56167690Y-87617380D01*
X57596261Y-86617380D02*
X57691500Y-86617380D01*
X57786738Y-86665000D01*
X57834357Y-86712619D01*
X57881976Y-86807857D01*
X57929595Y-86998333D01*
X57929595Y-87236428D01*
X57881976Y-87426904D01*
X57834357Y-87522142D01*
X57786738Y-87569761D01*
X57691500Y-87617380D01*
X57596261Y-87617380D01*
X57501023Y-87569761D01*
X57453404Y-87522142D01*
X57405785Y-87426904D01*
X57358166Y-87236428D01*
X57358166Y-86998333D01*
X57405785Y-86807857D01*
X57453404Y-86712619D01*
X57501023Y-86665000D01*
X57596261Y-86617380D01*
X59643880Y-87617380D02*
X59072452Y-87617380D01*
X59358166Y-87617380D02*
X59358166Y-86617380D01*
X59262928Y-86760238D01*
X59167690Y-86855476D01*
X59072452Y-86903095D01*
X60024833Y-86712619D02*
X60072452Y-86665000D01*
X60167690Y-86617380D01*
X60405785Y-86617380D01*
X60501023Y-86665000D01*
X60548642Y-86712619D01*
X60596261Y-86807857D01*
X60596261Y-86903095D01*
X60548642Y-87045952D01*
X59977214Y-87617380D01*
X60596261Y-87617380D01*
X61739119Y-86569761D02*
X60881976Y-87855476D01*
X62024833Y-86712619D02*
X62072452Y-86665000D01*
X62167690Y-86617380D01*
X62405785Y-86617380D01*
X62501023Y-86665000D01*
X62548642Y-86712619D01*
X62596261Y-86807857D01*
X62596261Y-86903095D01*
X62548642Y-87045952D01*
X61977214Y-87617380D01*
X62596261Y-87617380D01*
X62977214Y-86712619D02*
X63024833Y-86665000D01*
X63120071Y-86617380D01*
X63358166Y-86617380D01*
X63453404Y-86665000D01*
X63501023Y-86712619D01*
X63548642Y-86807857D01*
X63548642Y-86903095D01*
X63501023Y-87045952D01*
X62929595Y-87617380D01*
X63548642Y-87617380D01*
X54548642Y-88751190D02*
X54501023Y-88703571D01*
X54405785Y-88655952D01*
X54310547Y-88655952D01*
X54215309Y-88703571D01*
X54167690Y-88751190D01*
X54120071Y-88846428D01*
X54120071Y-88941666D01*
X54167690Y-89036904D01*
X54215309Y-89084523D01*
X54310547Y-89132142D01*
X54405785Y-89132142D01*
X54501023Y-89084523D01*
X54548642Y-89036904D01*
X54548642Y-88655952D02*
X54548642Y-89036904D01*
X54596261Y-89084523D01*
X54643880Y-89084523D01*
X54739119Y-89036904D01*
X54786738Y-88941666D01*
X54786738Y-88703571D01*
X54691500Y-88560714D01*
X54548642Y-88465476D01*
X54358166Y-88417857D01*
X54167690Y-88465476D01*
X54024833Y-88560714D01*
X53929595Y-88703571D01*
X53881976Y-88894047D01*
X53929595Y-89084523D01*
X54024833Y-89227380D01*
X54167690Y-89322619D01*
X54358166Y-89370238D01*
X54548642Y-89322619D01*
X54691500Y-89227380D01*
X55643880Y-88560714D02*
X55643880Y-89560714D01*
X55643880Y-89179761D02*
X55548642Y-89227380D01*
X55358166Y-89227380D01*
X55262928Y-89179761D01*
X55215309Y-89132142D01*
X55167690Y-89036904D01*
X55167690Y-88751190D01*
X55215309Y-88655952D01*
X55262928Y-88608333D01*
X55358166Y-88560714D01*
X55548642Y-88560714D01*
X55643880Y-88608333D01*
X56024833Y-88560714D02*
X56215309Y-89227380D01*
X56405785Y-88751190D01*
X56596261Y-89227380D01*
X56786738Y-88560714D01*
X57072452Y-88227380D02*
X57691500Y-88227380D01*
X57358166Y-88608333D01*
X57501023Y-88608333D01*
X57596261Y-88655952D01*
X57643880Y-88703571D01*
X57691500Y-88798809D01*
X57691500Y-89036904D01*
X57643880Y-89132142D01*
X57596261Y-89179761D01*
X57501023Y-89227380D01*
X57215309Y-89227380D01*
X57120071Y-89179761D01*
X57072452Y-89132142D01*
X58120071Y-89227380D02*
X58120071Y-88560714D01*
X58120071Y-88751190D02*
X58167690Y-88655952D01*
X58215309Y-88608333D01*
X58310547Y-88560714D01*
X58405785Y-88560714D01*
X58596261Y-88560714D02*
X58977214Y-88560714D01*
X58739119Y-88227380D02*
X58739119Y-89084523D01*
X58786738Y-89179761D01*
X58881976Y-89227380D01*
X58977214Y-89227380D01*
X59215309Y-88560714D02*
X59739119Y-88560714D01*
X59215309Y-89227380D01*
X59739119Y-89227380D01*
X60548642Y-88560714D02*
X60548642Y-89227380D01*
X60120071Y-88560714D02*
X60120071Y-89084523D01*
X60167690Y-89179761D01*
X60262928Y-89227380D01*
X60405785Y-89227380D01*
X60501023Y-89179761D01*
X60548642Y-89132142D01*
X61024833Y-89227380D02*
X61024833Y-88560714D01*
X61024833Y-88227380D02*
X60977214Y-88275000D01*
X61024833Y-88322619D01*
X61072452Y-88275000D01*
X61024833Y-88227380D01*
X61024833Y-88322619D01*
X61643880Y-89227380D02*
X61548642Y-89179761D01*
X61501023Y-89132142D01*
X61453404Y-89036904D01*
X61453404Y-88751190D01*
X61501023Y-88655952D01*
X61548642Y-88608333D01*
X61643880Y-88560714D01*
X61786738Y-88560714D01*
X61881976Y-88608333D01*
X61929595Y-88655952D01*
X61977214Y-88751190D01*
X61977214Y-89036904D01*
X61929595Y-89132142D01*
X61881976Y-89179761D01*
X61786738Y-89227380D01*
X61643880Y-89227380D01*
X62405785Y-88560714D02*
X62405785Y-89560714D01*
X62405785Y-88608333D02*
X62501023Y-88560714D01*
X62691500Y-88560714D01*
X62786738Y-88608333D01*
X62834357Y-88655952D01*
X62881976Y-88751190D01*
X62881976Y-89036904D01*
X62834357Y-89132142D01*
X62786738Y-89179761D01*
X62691500Y-89227380D01*
X62501023Y-89227380D01*
X62405785Y-89179761D01*
%TO.C,C2*%
X54459142Y-54014666D02*
X54506761Y-54062285D01*
X54554380Y-54205142D01*
X54554380Y-54300380D01*
X54506761Y-54443238D01*
X54411523Y-54538476D01*
X54316285Y-54586095D01*
X54125809Y-54633714D01*
X53982952Y-54633714D01*
X53792476Y-54586095D01*
X53697238Y-54538476D01*
X53602000Y-54443238D01*
X53554380Y-54300380D01*
X53554380Y-54205142D01*
X53602000Y-54062285D01*
X53649619Y-54014666D01*
X53649619Y-53633714D02*
X53602000Y-53586095D01*
X53554380Y-53490857D01*
X53554380Y-53252761D01*
X53602000Y-53157523D01*
X53649619Y-53109904D01*
X53744857Y-53062285D01*
X53840095Y-53062285D01*
X53982952Y-53109904D01*
X54554380Y-53681333D01*
X54554380Y-53062285D01*
%TO.C,R16*%
X58793142Y-62682380D02*
X58459809Y-62206190D01*
X58221714Y-62682380D02*
X58221714Y-61682380D01*
X58602666Y-61682380D01*
X58697904Y-61730000D01*
X58745523Y-61777619D01*
X58793142Y-61872857D01*
X58793142Y-62015714D01*
X58745523Y-62110952D01*
X58697904Y-62158571D01*
X58602666Y-62206190D01*
X58221714Y-62206190D01*
X59745523Y-62682380D02*
X59174095Y-62682380D01*
X59459809Y-62682380D02*
X59459809Y-61682380D01*
X59364571Y-61825238D01*
X59269333Y-61920476D01*
X59174095Y-61968095D01*
X60602666Y-61682380D02*
X60412190Y-61682380D01*
X60316952Y-61730000D01*
X60269333Y-61777619D01*
X60174095Y-61920476D01*
X60126476Y-62110952D01*
X60126476Y-62491904D01*
X60174095Y-62587142D01*
X60221714Y-62634761D01*
X60316952Y-62682380D01*
X60507428Y-62682380D01*
X60602666Y-62634761D01*
X60650285Y-62587142D01*
X60697904Y-62491904D01*
X60697904Y-62253809D01*
X60650285Y-62158571D01*
X60602666Y-62110952D01*
X60507428Y-62063333D01*
X60316952Y-62063333D01*
X60221714Y-62110952D01*
X60174095Y-62158571D01*
X60126476Y-62253809D01*
%TO.C,C4*%
X56983333Y-63603142D02*
X56935714Y-63650761D01*
X56792857Y-63698380D01*
X56697619Y-63698380D01*
X56554761Y-63650761D01*
X56459523Y-63555523D01*
X56411904Y-63460285D01*
X56364285Y-63269809D01*
X56364285Y-63126952D01*
X56411904Y-62936476D01*
X56459523Y-62841238D01*
X56554761Y-62746000D01*
X56697619Y-62698380D01*
X56792857Y-62698380D01*
X56935714Y-62746000D01*
X56983333Y-62793619D01*
X57840476Y-63031714D02*
X57840476Y-63698380D01*
X57602380Y-62650761D02*
X57364285Y-63365047D01*
X57983333Y-63365047D01*
%TO.C,U2*%
X62822380Y-75691904D02*
X63631904Y-75691904D01*
X63727142Y-75644285D01*
X63774761Y-75596666D01*
X63822380Y-75501428D01*
X63822380Y-75310952D01*
X63774761Y-75215714D01*
X63727142Y-75168095D01*
X63631904Y-75120476D01*
X62822380Y-75120476D01*
X62917619Y-74691904D02*
X62870000Y-74644285D01*
X62822380Y-74549047D01*
X62822380Y-74310952D01*
X62870000Y-74215714D01*
X62917619Y-74168095D01*
X63012857Y-74120476D01*
X63108095Y-74120476D01*
X63250952Y-74168095D01*
X63822380Y-74739523D01*
X63822380Y-74120476D01*
%TO.C,C1*%
X58171142Y-51474666D02*
X58218761Y-51522285D01*
X58266380Y-51665142D01*
X58266380Y-51760380D01*
X58218761Y-51903238D01*
X58123523Y-51998476D01*
X58028285Y-52046095D01*
X57837809Y-52093714D01*
X57694952Y-52093714D01*
X57504476Y-52046095D01*
X57409238Y-51998476D01*
X57314000Y-51903238D01*
X57266380Y-51760380D01*
X57266380Y-51665142D01*
X57314000Y-51522285D01*
X57361619Y-51474666D01*
X58266380Y-50522285D02*
X58266380Y-51093714D01*
X58266380Y-50808000D02*
X57266380Y-50808000D01*
X57409238Y-50903238D01*
X57504476Y-50998476D01*
X57552095Y-51093714D01*
%TO.C,C3*%
X56983333Y-65635142D02*
X56935714Y-65682761D01*
X56792857Y-65730380D01*
X56697619Y-65730380D01*
X56554761Y-65682761D01*
X56459523Y-65587523D01*
X56411904Y-65492285D01*
X56364285Y-65301809D01*
X56364285Y-65158952D01*
X56411904Y-64968476D01*
X56459523Y-64873238D01*
X56554761Y-64778000D01*
X56697619Y-64730380D01*
X56792857Y-64730380D01*
X56935714Y-64778000D01*
X56983333Y-64825619D01*
X57316666Y-64730380D02*
X57935714Y-64730380D01*
X57602380Y-65111333D01*
X57745238Y-65111333D01*
X57840476Y-65158952D01*
X57888095Y-65206571D01*
X57935714Y-65301809D01*
X57935714Y-65539904D01*
X57888095Y-65635142D01*
X57840476Y-65682761D01*
X57745238Y-65730380D01*
X57459523Y-65730380D01*
X57364285Y-65682761D01*
X57316666Y-65635142D01*
%TO.C,U1*%
X61722095Y-59650380D02*
X61722095Y-60459904D01*
X61769714Y-60555142D01*
X61817333Y-60602761D01*
X61912571Y-60650380D01*
X62103047Y-60650380D01*
X62198285Y-60602761D01*
X62245904Y-60555142D01*
X62293523Y-60459904D01*
X62293523Y-59650380D01*
X63293523Y-60650380D02*
X62722095Y-60650380D01*
X63007809Y-60650380D02*
X63007809Y-59650380D01*
X62912571Y-59793238D01*
X62817333Y-59888476D01*
X62722095Y-59936095D01*
%TO.C,R15*%
X53967142Y-59508380D02*
X53633809Y-59032190D01*
X53395714Y-59508380D02*
X53395714Y-58508380D01*
X53776666Y-58508380D01*
X53871904Y-58556000D01*
X53919523Y-58603619D01*
X53967142Y-58698857D01*
X53967142Y-58841714D01*
X53919523Y-58936952D01*
X53871904Y-58984571D01*
X53776666Y-59032190D01*
X53395714Y-59032190D01*
X54919523Y-59508380D02*
X54348095Y-59508380D01*
X54633809Y-59508380D02*
X54633809Y-58508380D01*
X54538571Y-58651238D01*
X54443333Y-58746476D01*
X54348095Y-58794095D01*
X55824285Y-58508380D02*
X55348095Y-58508380D01*
X55300476Y-58984571D01*
X55348095Y-58936952D01*
X55443333Y-58889333D01*
X55681428Y-58889333D01*
X55776666Y-58936952D01*
X55824285Y-58984571D01*
X55871904Y-59079809D01*
X55871904Y-59317904D01*
X55824285Y-59413142D01*
X55776666Y-59460761D01*
X55681428Y-59508380D01*
X55443333Y-59508380D01*
X55348095Y-59460761D01*
X55300476Y-59413142D01*
D11*
%TO.C,C2*%
X54837000Y-51046748D02*
X54837000Y-51569252D01*
X53367000Y-51046748D02*
X53367000Y-51569252D01*
%TO.C,R16*%
X57684936Y-61441000D02*
X58139064Y-61441000D01*
X57684936Y-59971000D02*
X58139064Y-59971000D01*
%TO.C,C4*%
X54348748Y-64235000D02*
X54871252Y-64235000D01*
X54348748Y-62765000D02*
X54871252Y-62765000D01*
%TO.C,U2*%
X54260000Y-74930000D02*
X54260000Y-69030000D01*
X62580000Y-74930000D02*
X62580000Y-80830000D01*
X54260000Y-74930000D02*
X54260000Y-80830000D01*
X62580000Y-74930000D02*
X62580000Y-67730000D01*
%TO.C,C1*%
X56869000Y-51046748D02*
X56869000Y-51569252D01*
X55399000Y-51046748D02*
X55399000Y-51569252D01*
%TO.C,C3*%
X54348748Y-66267000D02*
X54871252Y-66267000D01*
X54348748Y-64797000D02*
X54871252Y-64797000D01*
%TO.C,U1*%
X63282000Y-59290000D02*
X57272000Y-59290000D01*
X57272000Y-59290000D02*
X57272000Y-58030000D01*
X61032000Y-52470000D02*
X57272000Y-52470000D01*
X57272000Y-52470000D02*
X57272000Y-53730000D01*
%TO.C,R15*%
X54382936Y-61441000D02*
X54837064Y-61441000D01*
X54382936Y-59971000D02*
X54837064Y-59971000D01*
%TD*%
M02*
