%TF.GenerationSoftware,KiCad,Pcbnew,(6.0.10)*%
%TF.CreationDate,2022-12-29T18:40:38+01:00*%
%TF.ProjectId,DS1245Y_FRAM,44533132-3435-4595-9f46-52414d2e6b69,rev?*%
%TF.SameCoordinates,Original*%
%TF.FileFunction,Copper,L1,Top*%
%TF.FilePolarity,Positive*%
%FSLAX46Y46*%
G04 Gerber Fmt 4.6, Leading zero omitted, Abs format (unit mm)*
G04 Created by KiCad (PCBNEW (6.0.10)) date 2022-12-29 18:40:38*
%MOMM*%
%LPD*%
G01*
G04 APERTURE LIST*
G04 Aperture macros list*
%AMRoundRect*
0 Rectangle with rounded corners*
0 $1 Rounding radius*
0 $2 $3 $4 $5 $6 $7 $8 $9 X,Y pos of 4 corners*
0 Add a 4 corners polygon primitive as box body*
4,1,4,$2,$3,$4,$5,$6,$7,$8,$9,$2,$3,0*
0 Add four circle primitives for the rounded corners*
1,1,$1+$1,$2,$3*
1,1,$1+$1,$4,$5*
1,1,$1+$1,$6,$7*
1,1,$1+$1,$8,$9*
0 Add four rect primitives between the rounded corners*
20,1,$1+$1,$2,$3,$4,$5,0*
20,1,$1+$1,$4,$5,$6,$7,0*
20,1,$1+$1,$6,$7,$8,$9,0*
20,1,$1+$1,$8,$9,$2,$3,0*%
G04 Aperture macros list end*
%TA.AperFunction,SMDPad,CuDef*%
%ADD10RoundRect,0.250000X-0.475000X0.250000X-0.475000X-0.250000X0.475000X-0.250000X0.475000X0.250000X0*%
%TD*%
%TA.AperFunction,SMDPad,CuDef*%
%ADD11RoundRect,0.250000X-0.262500X-0.450000X0.262500X-0.450000X0.262500X0.450000X-0.262500X0.450000X0*%
%TD*%
%TA.AperFunction,SMDPad,CuDef*%
%ADD12RoundRect,0.250000X-0.250000X-0.475000X0.250000X-0.475000X0.250000X0.475000X-0.250000X0.475000X0*%
%TD*%
%TA.AperFunction,SMDPad,CuDef*%
%ADD13RoundRect,0.075000X-0.075000X0.700000X-0.075000X-0.700000X0.075000X-0.700000X0.075000X0.700000X0*%
%TD*%
%TA.AperFunction,SMDPad,CuDef*%
%ADD14R,2.000000X1.500000*%
%TD*%
%TA.AperFunction,SMDPad,CuDef*%
%ADD15R,2.000000X3.800000*%
%TD*%
%TA.AperFunction,ComponentPad*%
%ADD16R,1.700000X1.700000*%
%TD*%
%TA.AperFunction,ComponentPad*%
%ADD17O,1.700000X1.700000*%
%TD*%
%TA.AperFunction,ViaPad*%
%ADD18C,0.800000*%
%TD*%
%TA.AperFunction,Conductor*%
%ADD19C,0.250000*%
%TD*%
G04 APERTURE END LIST*
D10*
%TO.P,C2,1*%
%TO.N,+5V*%
X54102000Y-50358000D03*
%TO.P,C2,2*%
%TO.N,GND*%
X54102000Y-52258000D03*
%TD*%
D11*
%TO.P,R16,1*%
%TO.N,Net-(U1-Pad1)*%
X56999500Y-60706000D03*
%TO.P,R16,2*%
%TO.N,GND*%
X58824500Y-60706000D03*
%TD*%
D12*
%TO.P,C4,1*%
%TO.N,VDD*%
X53660000Y-63500000D03*
%TO.P,C4,2*%
%TO.N,GND*%
X55560000Y-63500000D03*
%TD*%
D13*
%TO.P,U2,1,A11*%
%TO.N,A11*%
X62170000Y-68505000D03*
%TO.P,U2,2,A9*%
%TO.N,A9*%
X61670000Y-68505000D03*
%TO.P,U2,3,A8*%
%TO.N,A8*%
X61170000Y-68505000D03*
%TO.P,U2,4,A13*%
%TO.N,A13*%
X60670000Y-68505000D03*
%TO.P,U2,5,WE*%
%TO.N,~WE*%
X60170000Y-68505000D03*
%TO.P,U2,6,CE2*%
%TO.N,VDD*%
X59670000Y-68505000D03*
%TO.P,U2,7,A15*%
%TO.N,A15*%
X59170000Y-68505000D03*
%TO.P,U2,8,VDD*%
%TO.N,VDD*%
X58670000Y-68505000D03*
%TO.P,U2,9,NC*%
%TO.N,unconnected-(U2-Pad9)*%
X58170000Y-68505000D03*
%TO.P,U2,10,A16*%
%TO.N,A16*%
X57670000Y-68505000D03*
%TO.P,U2,11,A14*%
%TO.N,A14*%
X57170000Y-68505000D03*
%TO.P,U2,12,A12*%
%TO.N,A12*%
X56670000Y-68505000D03*
%TO.P,U2,13,A7*%
%TO.N,A7*%
X56170000Y-68505000D03*
%TO.P,U2,14,A6*%
%TO.N,A6*%
X55670000Y-68505000D03*
%TO.P,U2,15,A5*%
%TO.N,A5*%
X55170000Y-68505000D03*
%TO.P,U2,16,A4*%
%TO.N,A4*%
X54670000Y-68505000D03*
%TO.P,U2,17,A3*%
%TO.N,A3*%
X54670000Y-81355000D03*
%TO.P,U2,18,A2*%
%TO.N,A2*%
X55170000Y-81355000D03*
%TO.P,U2,19,A1*%
%TO.N,A1*%
X55670000Y-81355000D03*
%TO.P,U2,20,A0*%
%TO.N,A0*%
X56170000Y-81355000D03*
%TO.P,U2,21,DQ0*%
%TO.N,DQ0*%
X56670000Y-81355000D03*
%TO.P,U2,22,DQ1*%
%TO.N,DQ1*%
X57170000Y-81355000D03*
%TO.P,U2,23,DQ2*%
%TO.N,DQ2*%
X57670000Y-81355000D03*
%TO.P,U2,24,VSS*%
%TO.N,GND*%
X58170000Y-81355000D03*
%TO.P,U2,25,DQ3*%
%TO.N,DQ3*%
X58670000Y-81355000D03*
%TO.P,U2,26,DQ4*%
%TO.N,DQ4*%
X59170000Y-81355000D03*
%TO.P,U2,27,DQ5*%
%TO.N,DQ5*%
X59670000Y-81355000D03*
%TO.P,U2,28,DQ6*%
%TO.N,DQ6*%
X60170000Y-81355000D03*
%TO.P,U2,29,DQ7*%
%TO.N,DQ7*%
X60670000Y-81355000D03*
%TO.P,U2,30,CE1*%
%TO.N,~CE*%
X61170000Y-81355000D03*
%TO.P,U2,31,A10*%
%TO.N,A10*%
X61670000Y-81355000D03*
%TO.P,U2,32,OE*%
%TO.N,~OE*%
X62170000Y-81355000D03*
%TD*%
D10*
%TO.P,C1,1*%
%TO.N,+5V*%
X56134000Y-50358000D03*
%TO.P,C1,2*%
%TO.N,GND*%
X56134000Y-52258000D03*
%TD*%
D12*
%TO.P,C3,1*%
%TO.N,VDD*%
X53660000Y-65532000D03*
%TO.P,C3,2*%
%TO.N,GND*%
X55560000Y-65532000D03*
%TD*%
D14*
%TO.P,U1,1,ADJ*%
%TO.N,Net-(U1-Pad1)*%
X62332000Y-58180000D03*
D15*
%TO.P,U1,2,VO*%
%TO.N,VDD*%
X56032000Y-55880000D03*
D14*
X62332000Y-55880000D03*
%TO.P,U1,3,VI*%
%TO.N,+5V*%
X62332000Y-53580000D03*
%TD*%
D11*
%TO.P,R15,1*%
%TO.N,VDD*%
X53697500Y-60706000D03*
%TO.P,R15,2*%
%TO.N,Net-(U1-Pad1)*%
X55522500Y-60706000D03*
%TD*%
D16*
%TO.P,J1,1,Pin_1*%
%TO.N,unconnected-(J1-Pad1)*%
X51308000Y-51308000D03*
D17*
%TO.P,J1,2,Pin_2*%
%TO.N,Net-(J1-Pad2)*%
X51308000Y-53848000D03*
%TO.P,J1,3,Pin_3*%
%TO.N,Net-(J1-Pad3)*%
X51308000Y-56388000D03*
%TO.P,J1,4,Pin_4*%
%TO.N,Net-(J1-Pad4)*%
X51308000Y-58928000D03*
%TO.P,J1,5,Pin_5*%
%TO.N,Net-(J1-Pad5)*%
X51308000Y-61468000D03*
%TO.P,J1,6,Pin_6*%
%TO.N,Net-(J1-Pad6)*%
X51308000Y-64008000D03*
%TO.P,J1,7,Pin_7*%
%TO.N,Net-(J1-Pad7)*%
X51308000Y-66548000D03*
%TO.P,J1,8,Pin_8*%
%TO.N,Net-(J1-Pad8)*%
X51308000Y-69088000D03*
%TO.P,J1,9,Pin_9*%
%TO.N,Net-(J1-Pad9)*%
X51308000Y-71628000D03*
%TO.P,J1,10,Pin_10*%
%TO.N,Net-(J1-Pad10)*%
X51308000Y-74168000D03*
%TO.P,J1,11,Pin_11*%
%TO.N,Net-(J1-Pad11)*%
X51308000Y-76708000D03*
%TO.P,J1,12,Pin_12*%
%TO.N,Net-(J1-Pad12)*%
X51308000Y-79248000D03*
%TO.P,J1,13,Pin_13*%
%TO.N,Net-(J1-Pad13)*%
X51308000Y-81788000D03*
%TO.P,J1,14,Pin_14*%
%TO.N,Net-(J1-Pad14)*%
X51308000Y-84328000D03*
%TO.P,J1,15,Pin_15*%
%TO.N,Net-(J1-Pad15)*%
X51308000Y-86868000D03*
%TO.P,J1,16,Pin_16*%
%TO.N,GND*%
X51308000Y-89408000D03*
%TD*%
D16*
%TO.P,J2,1,Pin_1*%
%TO.N,Net-(J2-Pad1)*%
X66548000Y-89408000D03*
D17*
%TO.P,J2,2,Pin_2*%
%TO.N,Net-(J2-Pad2)*%
X66548000Y-86868000D03*
%TO.P,J2,3,Pin_3*%
%TO.N,Net-(J2-Pad3)*%
X66548000Y-84328000D03*
%TO.P,J2,4,Pin_4*%
%TO.N,Net-(J2-Pad4)*%
X66548000Y-81788000D03*
%TO.P,J2,5,Pin_5*%
%TO.N,Net-(J2-Pad5)*%
X66548000Y-79248000D03*
%TO.P,J2,6,Pin_6*%
%TO.N,Net-(J2-Pad6)*%
X66548000Y-76708000D03*
%TO.P,J2,7,Pin_7*%
%TO.N,Net-(J2-Pad7)*%
X66548000Y-74168000D03*
%TO.P,J2,8,Pin_8*%
%TO.N,Net-(J2-Pad8)*%
X66548000Y-71628000D03*
%TO.P,J2,9,Pin_9*%
%TO.N,Net-(J2-Pad9)*%
X66548000Y-69088000D03*
%TO.P,J2,10,Pin_10*%
%TO.N,Net-(J2-Pad10)*%
X66548000Y-66548000D03*
%TO.P,J2,11,Pin_11*%
%TO.N,Net-(J2-Pad11)*%
X66548000Y-64008000D03*
%TO.P,J2,12,Pin_12*%
%TO.N,Net-(J2-Pad12)*%
X66548000Y-61468000D03*
%TO.P,J2,13,Pin_13*%
%TO.N,Net-(J2-Pad13)*%
X66548000Y-58928000D03*
%TO.P,J2,14,Pin_14*%
%TO.N,unconnected-(J2-Pad14)*%
X66548000Y-56388000D03*
%TO.P,J2,15,Pin_15*%
%TO.N,Net-(J2-Pad15)*%
X66548000Y-53848000D03*
%TO.P,J2,16,Pin_16*%
%TO.N,+5V*%
X66548000Y-51308000D03*
%TD*%
D18*
%TO.N,Net-(U1-Pad1)*%
X60706000Y-58166000D03*
X58203500Y-56642000D03*
%TO.N,VDD*%
X60706000Y-56642000D03*
X58928000Y-75184000D03*
X54637110Y-55201366D03*
%TO.N,A16*%
X59944000Y-54610000D03*
%TO.N,A14*%
X58382500Y-65024000D03*
%TO.N,A12*%
X57658000Y-64008000D03*
%TO.N,A7*%
X56484863Y-70261089D03*
%TO.N,A6*%
X56896000Y-65786000D03*
%TO.N,A5*%
X55043741Y-67180157D03*
%TO.N,A4*%
X55118000Y-70358000D03*
%TO.N,A3*%
X53086000Y-72898000D03*
%TO.N,A2*%
X54864000Y-77978000D03*
%TO.N,A1*%
X56896000Y-78232000D03*
%TO.N,A0*%
X56896000Y-79502000D03*
%TO.N,DQ0*%
X56445500Y-83058000D03*
%TO.N,DQ1*%
X56896000Y-84074000D03*
%TO.N,DQ2*%
X57150000Y-86614000D03*
%TO.N,~CE*%
X61197610Y-78216616D03*
%TO.N,A15*%
X59182000Y-70612000D03*
%TO.N,~WE*%
X60960000Y-60706000D03*
%TO.N,A13*%
X60960000Y-62484000D03*
%TO.N,A8*%
X61214000Y-65278000D03*
%TO.N,A9*%
X62876156Y-67365605D03*
%TO.N,A11*%
X62992000Y-70358000D03*
%TO.N,~OE*%
X62992000Y-72898000D03*
%TO.N,A10*%
X61976000Y-75408500D03*
%TO.N,DQ7*%
X60706000Y-79502000D03*
%TO.N,DQ6*%
X60706000Y-83058000D03*
%TO.N,DQ5*%
X60198000Y-84074000D03*
%TO.N,DQ4*%
X59944000Y-86868000D03*
%TO.N,DQ3*%
X59690000Y-89154000D03*
%TD*%
D19*
%TO.N,Net-(U1-Pad1)*%
X60706000Y-58166000D02*
X62318000Y-58166000D01*
X62318000Y-58166000D02*
X62332000Y-58180000D01*
X58203500Y-59502000D02*
X58203500Y-56642000D01*
X56999500Y-60706000D02*
X58203500Y-59502000D01*
%TO.N,+5V*%
X62332000Y-51968000D02*
X62992000Y-51308000D01*
X62992000Y-51308000D02*
X66548000Y-51308000D01*
X56134000Y-50358000D02*
X60722000Y-50358000D01*
X60722000Y-50358000D02*
X62332000Y-51968000D01*
X54102000Y-50358000D02*
X56134000Y-50358000D01*
X62332000Y-53580000D02*
X62332000Y-51968000D01*
%TO.N,GND*%
X52835480Y-53524520D02*
X54102000Y-52258000D01*
X58170000Y-76638012D02*
X52835480Y-71303492D01*
X57846000Y-52258000D02*
X58928000Y-53340000D01*
X56030500Y-63500000D02*
X58824500Y-60706000D01*
X55880000Y-89408000D02*
X51308000Y-89408000D01*
X56134000Y-52258000D02*
X54102000Y-52258000D01*
X58170000Y-81355000D02*
X58170000Y-76638012D01*
X55560000Y-63500000D02*
X55560000Y-65532000D01*
X58170000Y-87118000D02*
X55880000Y-89408000D01*
X58928000Y-60602500D02*
X58824500Y-60706000D01*
X58928000Y-53340000D02*
X58928000Y-60602500D01*
X56134000Y-52258000D02*
X57846000Y-52258000D01*
X58170000Y-81355000D02*
X58170000Y-87118000D01*
X55560000Y-63500000D02*
X56030500Y-63500000D01*
X52835480Y-71303492D02*
X52835480Y-53524520D01*
%TO.N,VDD*%
X62332000Y-55880000D02*
X61468000Y-55880000D01*
X53697500Y-60706000D02*
X56032000Y-58371500D01*
X59410486Y-67405480D02*
X58832520Y-67405480D01*
X58832520Y-67405480D02*
X58670000Y-67568000D01*
X54637110Y-55201366D02*
X55353366Y-55201366D01*
X53697500Y-63462500D02*
X53660000Y-63500000D01*
X55353366Y-55201366D02*
X56032000Y-55880000D01*
X53660000Y-65532000D02*
X53660000Y-70170000D01*
X58457489Y-74713489D02*
X58928000Y-75184000D01*
X58457489Y-70311897D02*
X58457489Y-71411489D01*
X61468000Y-55880000D02*
X60706000Y-56642000D01*
X56032000Y-58371500D02*
X56032000Y-55880000D01*
X59670000Y-67664994D02*
X59410486Y-67405480D01*
X53660000Y-70170000D02*
X54901489Y-71411489D01*
X54901489Y-71411489D02*
X58457489Y-71411489D01*
X59670000Y-68505000D02*
X59670000Y-67664994D01*
X58670000Y-68505000D02*
X58670000Y-70099386D01*
X53660000Y-65532000D02*
X53660000Y-63500000D01*
X58457489Y-71411489D02*
X58457489Y-74713489D01*
X58670000Y-70099386D02*
X58457489Y-70311897D01*
X53697500Y-60706000D02*
X53697500Y-63462500D01*
X58670000Y-67568000D02*
X58670000Y-68505000D01*
%TO.N,A16*%
X57670000Y-68505000D02*
X57670000Y-67664994D01*
X59944000Y-61086283D02*
X59944000Y-54610000D01*
X59590449Y-65744545D02*
X59590449Y-61439834D01*
X57670000Y-67664994D02*
X59590449Y-65744545D01*
X59590449Y-61439834D02*
X59944000Y-61086283D01*
%TO.N,A14*%
X58382500Y-66223930D02*
X58382500Y-65024000D01*
X57170000Y-67436430D02*
X58382500Y-66223930D01*
X57170000Y-68505000D02*
X57170000Y-67436430D01*
%TO.N,A12*%
X57658000Y-66312712D02*
X57658000Y-64008000D01*
X56670000Y-67300712D02*
X57658000Y-66312712D01*
X56670000Y-68505000D02*
X56670000Y-67300712D01*
%TO.N,A7*%
X56170000Y-68505000D02*
X56170000Y-69946226D01*
X56170000Y-69946226D02*
X56484863Y-70261089D01*
%TO.N,A6*%
X56896000Y-66438994D02*
X55670000Y-67664994D01*
X56896000Y-65786000D02*
X56896000Y-66438994D01*
X55670000Y-67664994D02*
X55670000Y-68505000D01*
%TO.N,A5*%
X55170000Y-67306416D02*
X55043741Y-67180157D01*
X55170000Y-68505000D02*
X55170000Y-67306416D01*
%TO.N,A4*%
X54670000Y-69910000D02*
X55118000Y-70358000D01*
X54670000Y-68505000D02*
X54670000Y-69910000D01*
%TO.N,A3*%
X53086000Y-79771000D02*
X53086000Y-72898000D01*
X54670000Y-81355000D02*
X53086000Y-79771000D01*
%TO.N,A2*%
X55170000Y-78284000D02*
X55170000Y-81355000D01*
X54864000Y-77978000D02*
X55170000Y-78284000D01*
%TO.N,A1*%
X55670000Y-81355000D02*
X55670000Y-79458000D01*
X55670000Y-79458000D02*
X56896000Y-78232000D01*
%TO.N,A0*%
X56170000Y-80228000D02*
X56170000Y-81355000D01*
X56896000Y-79502000D02*
X56170000Y-80228000D01*
%TO.N,DQ0*%
X56670000Y-82833500D02*
X56445500Y-83058000D01*
X56670000Y-81355000D02*
X56670000Y-82833500D01*
%TO.N,DQ1*%
X56896000Y-84074000D02*
X57170000Y-83800000D01*
X57170000Y-83800000D02*
X57170000Y-81355000D01*
%TO.N,DQ2*%
X57670000Y-81355000D02*
X57670000Y-86094000D01*
X57670000Y-86094000D02*
X57150000Y-86614000D01*
%TO.N,Net-(U1-Pad1)*%
X55522500Y-60706000D02*
X56999500Y-60706000D01*
%TO.N,~CE*%
X61468000Y-80010000D02*
X61468000Y-78487006D01*
X61170000Y-81355000D02*
X61170000Y-80308000D01*
X61170000Y-80308000D02*
X61468000Y-80010000D01*
X61468000Y-78487006D02*
X61197610Y-78216616D01*
%TO.N,A15*%
X59182000Y-68517000D02*
X59170000Y-68505000D01*
X59182000Y-70612000D02*
X59182000Y-68517000D01*
%TO.N,~WE*%
X60960000Y-60706000D02*
X60039969Y-61626031D01*
X60170000Y-67536000D02*
X60170000Y-68505000D01*
X60039969Y-61626031D02*
X60039969Y-67405969D01*
X60039969Y-67405969D02*
X60170000Y-67536000D01*
%TO.N,A13*%
X60670000Y-68505000D02*
X60670000Y-65758614D01*
X60489489Y-65578103D02*
X60489489Y-62954511D01*
X60670000Y-65758614D02*
X60489489Y-65578103D01*
X60489489Y-62954511D02*
X60960000Y-62484000D01*
%TO.N,A8*%
X61214000Y-67310000D02*
X61170000Y-67354000D01*
X61214000Y-65278000D02*
X61214000Y-67310000D01*
X61170000Y-67354000D02*
X61170000Y-68505000D01*
%TO.N,A9*%
X61670000Y-68505000D02*
X61670000Y-67664994D01*
X61670000Y-67664994D02*
X61969389Y-67365605D01*
X61969389Y-67365605D02*
X62876156Y-67365605D01*
%TO.N,A11*%
X62992000Y-69327000D02*
X62170000Y-68505000D01*
X62992000Y-70358000D02*
X62992000Y-69327000D01*
%TO.N,~OE*%
X62738000Y-80264000D02*
X62992000Y-80010000D01*
X62170000Y-80832000D02*
X62738000Y-80264000D01*
X62170000Y-81355000D02*
X62170000Y-80832000D01*
X62992000Y-80010000D02*
X62992000Y-72898000D01*
%TO.N,A10*%
X61670000Y-80443718D02*
X61976000Y-80137718D01*
X61670000Y-81355000D02*
X61670000Y-80443718D01*
X61976000Y-80137718D02*
X61976000Y-75408500D01*
%TO.N,DQ7*%
X60706000Y-79502000D02*
X60706000Y-80518000D01*
%TO.N,DQ6*%
X60170000Y-82522000D02*
X60706000Y-83058000D01*
X60170000Y-81355000D02*
X60170000Y-82522000D01*
%TO.N,DQ5*%
X59670000Y-83546000D02*
X59670000Y-81355000D01*
X60198000Y-84074000D02*
X59670000Y-83546000D01*
%TO.N,DQ4*%
X59170000Y-81355000D02*
X59170000Y-86094000D01*
X59170000Y-86094000D02*
X59944000Y-86868000D01*
%TO.N,DQ3*%
X59690000Y-89154000D02*
X58670000Y-88134000D01*
X58670000Y-88134000D02*
X58670000Y-81355000D01*
%TD*%
%TA.AperFunction,Conductor*%
%TO.N,GND*%
G36*
X65340395Y-51961502D02*
G01*
X65379707Y-52001665D01*
X65447987Y-52113088D01*
X65594250Y-52281938D01*
X65766126Y-52424632D01*
X65803073Y-52446222D01*
X65839445Y-52467476D01*
X65888169Y-52519114D01*
X65901240Y-52588897D01*
X65874509Y-52654669D01*
X65834055Y-52688027D01*
X65821607Y-52694507D01*
X65817474Y-52697610D01*
X65817471Y-52697612D01*
X65648094Y-52824784D01*
X65642965Y-52828635D01*
X65615316Y-52857568D01*
X65495594Y-52982850D01*
X65488629Y-52990138D01*
X65485715Y-52994410D01*
X65485714Y-52994411D01*
X65422347Y-53087304D01*
X65362743Y-53174680D01*
X65268688Y-53377305D01*
X65208989Y-53592570D01*
X65185251Y-53814695D01*
X65185548Y-53819848D01*
X65185548Y-53819851D01*
X65195707Y-53996036D01*
X65198110Y-54037715D01*
X65199247Y-54042761D01*
X65199248Y-54042767D01*
X65207363Y-54078774D01*
X65247222Y-54255639D01*
X65331266Y-54462616D01*
X65447987Y-54653088D01*
X65594250Y-54821938D01*
X65766126Y-54964632D01*
X65784333Y-54975271D01*
X65839445Y-55007476D01*
X65888169Y-55059114D01*
X65901240Y-55128897D01*
X65874509Y-55194669D01*
X65834055Y-55228027D01*
X65821607Y-55234507D01*
X65817474Y-55237610D01*
X65817471Y-55237612D01*
X65647100Y-55365530D01*
X65642965Y-55368635D01*
X65615312Y-55397572D01*
X65495594Y-55522850D01*
X65488629Y-55530138D01*
X65485715Y-55534410D01*
X65485714Y-55534411D01*
X65400556Y-55659249D01*
X65362743Y-55714680D01*
X65347003Y-55748590D01*
X65285897Y-55880232D01*
X65268688Y-55917305D01*
X65208989Y-56132570D01*
X65185251Y-56354695D01*
X65185548Y-56359848D01*
X65185548Y-56359851D01*
X65191011Y-56454590D01*
X65198110Y-56577715D01*
X65199247Y-56582761D01*
X65199248Y-56582767D01*
X65212597Y-56642000D01*
X65247222Y-56795639D01*
X65285461Y-56889811D01*
X65317891Y-56969676D01*
X65331266Y-57002616D01*
X65382019Y-57085438D01*
X65439320Y-57178944D01*
X65447987Y-57193088D01*
X65594250Y-57361938D01*
X65766126Y-57504632D01*
X65836595Y-57545811D01*
X65839445Y-57547476D01*
X65888169Y-57599114D01*
X65901240Y-57668897D01*
X65874509Y-57734669D01*
X65834055Y-57768027D01*
X65821607Y-57774507D01*
X65817474Y-57777610D01*
X65817471Y-57777612D01*
X65657509Y-57897715D01*
X65642965Y-57908635D01*
X65578782Y-57975799D01*
X65495594Y-58062850D01*
X65488629Y-58070138D01*
X65485715Y-58074410D01*
X65485714Y-58074411D01*
X65443646Y-58136081D01*
X65362743Y-58254680D01*
X65347003Y-58288590D01*
X65271369Y-58451530D01*
X65268688Y-58457305D01*
X65208989Y-58672570D01*
X65185251Y-58894695D01*
X65185548Y-58899848D01*
X65185548Y-58899851D01*
X65191011Y-58994590D01*
X65198110Y-59117715D01*
X65199247Y-59122761D01*
X65199248Y-59122767D01*
X65213816Y-59187406D01*
X65247222Y-59335639D01*
X65331266Y-59542616D01*
X65347009Y-59568306D01*
X65434635Y-59711299D01*
X65447987Y-59733088D01*
X65594250Y-59901938D01*
X65766126Y-60044632D01*
X65836595Y-60085811D01*
X65839445Y-60087476D01*
X65888169Y-60139114D01*
X65901240Y-60208897D01*
X65874509Y-60274669D01*
X65834055Y-60308027D01*
X65821607Y-60314507D01*
X65817474Y-60317610D01*
X65817471Y-60317612D01*
X65647100Y-60445530D01*
X65642965Y-60448635D01*
X65584520Y-60509794D01*
X65495594Y-60602850D01*
X65488629Y-60610138D01*
X65485715Y-60614410D01*
X65485714Y-60614411D01*
X65427715Y-60699435D01*
X65362743Y-60794680D01*
X65349190Y-60823878D01*
X65291652Y-60947834D01*
X65268688Y-60997305D01*
X65208989Y-61212570D01*
X65185251Y-61434695D01*
X65185548Y-61439848D01*
X65185548Y-61439851D01*
X65187790Y-61478738D01*
X65198110Y-61657715D01*
X65199247Y-61662761D01*
X65199248Y-61662767D01*
X65200368Y-61667736D01*
X65247222Y-61875639D01*
X65331266Y-62082616D01*
X65447987Y-62273088D01*
X65594250Y-62441938D01*
X65766126Y-62584632D01*
X65792516Y-62600053D01*
X65839445Y-62627476D01*
X65888169Y-62679114D01*
X65901240Y-62748897D01*
X65874509Y-62814669D01*
X65834055Y-62848027D01*
X65821607Y-62854507D01*
X65817474Y-62857610D01*
X65817471Y-62857612D01*
X65657373Y-62977817D01*
X65642965Y-62988635D01*
X65617554Y-63015226D01*
X65495594Y-63142850D01*
X65488629Y-63150138D01*
X65485715Y-63154410D01*
X65485714Y-63154411D01*
X65444931Y-63214197D01*
X65362743Y-63334680D01*
X65268688Y-63537305D01*
X65208989Y-63752570D01*
X65185251Y-63974695D01*
X65185548Y-63979848D01*
X65185548Y-63979851D01*
X65189466Y-64047802D01*
X65198110Y-64197715D01*
X65199247Y-64202761D01*
X65199248Y-64202767D01*
X65200060Y-64206368D01*
X65247222Y-64415639D01*
X65297405Y-64539226D01*
X65315166Y-64582965D01*
X65331266Y-64622616D01*
X65333965Y-64627020D01*
X65399683Y-64734262D01*
X65447987Y-64813088D01*
X65594250Y-64981938D01*
X65766126Y-65124632D01*
X65836595Y-65165811D01*
X65839445Y-65167476D01*
X65888169Y-65219114D01*
X65901240Y-65288897D01*
X65874509Y-65354669D01*
X65834055Y-65388027D01*
X65821607Y-65394507D01*
X65817474Y-65397610D01*
X65817471Y-65397612D01*
X65647100Y-65525530D01*
X65642965Y-65528635D01*
X65578782Y-65595799D01*
X65495594Y-65682850D01*
X65488629Y-65690138D01*
X65485715Y-65694410D01*
X65485714Y-65694411D01*
X65462719Y-65728121D01*
X65362743Y-65874680D01*
X65345233Y-65912403D01*
X65277928Y-66057400D01*
X65268688Y-66077305D01*
X65208989Y-66292570D01*
X65185251Y-66514695D01*
X65185548Y-66519848D01*
X65185548Y-66519851D01*
X65197530Y-66727656D01*
X65198110Y-66737715D01*
X65199247Y-66742761D01*
X65199248Y-66742767D01*
X65217500Y-66823753D01*
X65247222Y-66955639D01*
X65331266Y-67162616D01*
X65447987Y-67353088D01*
X65594250Y-67521938D01*
X65766126Y-67664632D01*
X65836595Y-67705811D01*
X65839445Y-67707476D01*
X65888169Y-67759114D01*
X65901240Y-67828897D01*
X65874509Y-67894669D01*
X65834055Y-67928027D01*
X65821607Y-67934507D01*
X65817474Y-67937610D01*
X65817471Y-67937612D01*
X65647100Y-68065530D01*
X65642965Y-68068635D01*
X65578782Y-68135799D01*
X65495594Y-68222850D01*
X65488629Y-68230138D01*
X65485715Y-68234410D01*
X65485714Y-68234411D01*
X65459945Y-68272187D01*
X65362743Y-68414680D01*
X65268688Y-68617305D01*
X65208989Y-68832570D01*
X65185251Y-69054695D01*
X65185548Y-69059848D01*
X65185548Y-69059851D01*
X65191796Y-69168203D01*
X65198110Y-69277715D01*
X65199247Y-69282761D01*
X65199248Y-69282767D01*
X65219119Y-69370939D01*
X65247222Y-69495639D01*
X65331266Y-69702616D01*
X65333965Y-69707020D01*
X65396763Y-69809497D01*
X65447987Y-69893088D01*
X65594250Y-70061938D01*
X65714527Y-70161794D01*
X65747347Y-70189041D01*
X65766126Y-70204632D01*
X65826302Y-70239796D01*
X65839445Y-70247476D01*
X65888169Y-70299114D01*
X65901240Y-70368897D01*
X65874509Y-70434669D01*
X65834055Y-70468027D01*
X65821607Y-70474507D01*
X65817474Y-70477610D01*
X65817471Y-70477612D01*
X65653541Y-70600694D01*
X65642965Y-70608635D01*
X65617485Y-70635298D01*
X65495594Y-70762850D01*
X65488629Y-70770138D01*
X65485715Y-70774410D01*
X65485714Y-70774411D01*
X65462661Y-70808206D01*
X65362743Y-70954680D01*
X65347003Y-70988590D01*
X65274290Y-71145237D01*
X65268688Y-71157305D01*
X65208989Y-71372570D01*
X65185251Y-71594695D01*
X65185548Y-71599848D01*
X65185548Y-71599851D01*
X65191011Y-71694590D01*
X65198110Y-71817715D01*
X65199247Y-71822761D01*
X65199248Y-71822767D01*
X65220275Y-71916069D01*
X65247222Y-72035639D01*
X65331266Y-72242616D01*
X65447987Y-72433088D01*
X65594250Y-72601938D01*
X65766126Y-72744632D01*
X65836595Y-72785811D01*
X65839445Y-72787476D01*
X65888169Y-72839114D01*
X65901240Y-72908897D01*
X65874509Y-72974669D01*
X65834055Y-73008027D01*
X65821607Y-73014507D01*
X65817474Y-73017610D01*
X65817471Y-73017612D01*
X65647100Y-73145530D01*
X65642965Y-73148635D01*
X65578782Y-73215799D01*
X65495594Y-73302850D01*
X65488629Y-73310138D01*
X65485715Y-73314410D01*
X65485714Y-73314411D01*
X65407393Y-73429226D01*
X65362743Y-73494680D01*
X65268688Y-73697305D01*
X65208989Y-73912570D01*
X65185251Y-74134695D01*
X65198110Y-74357715D01*
X65199247Y-74362761D01*
X65199248Y-74362767D01*
X65205430Y-74390197D01*
X65247222Y-74575639D01*
X65282015Y-74661325D01*
X65321005Y-74757345D01*
X65331266Y-74782616D01*
X65333965Y-74787020D01*
X65444307Y-74967082D01*
X65447987Y-74973088D01*
X65594250Y-75141938D01*
X65766126Y-75284632D01*
X65836595Y-75325811D01*
X65839445Y-75327476D01*
X65888169Y-75379114D01*
X65901240Y-75448897D01*
X65874509Y-75514669D01*
X65834055Y-75548027D01*
X65821607Y-75554507D01*
X65817474Y-75557610D01*
X65817471Y-75557612D01*
X65754748Y-75604706D01*
X65642965Y-75688635D01*
X65617554Y-75715226D01*
X65495594Y-75842850D01*
X65488629Y-75850138D01*
X65485715Y-75854410D01*
X65485714Y-75854411D01*
X65427516Y-75939726D01*
X65362743Y-76034680D01*
X65268688Y-76237305D01*
X65208989Y-76452570D01*
X65185251Y-76674695D01*
X65198110Y-76897715D01*
X65199247Y-76902761D01*
X65199248Y-76902767D01*
X65223304Y-77009508D01*
X65247222Y-77115639D01*
X65331266Y-77322616D01*
X65346712Y-77347822D01*
X65406118Y-77444763D01*
X65447987Y-77513088D01*
X65594250Y-77681938D01*
X65766126Y-77824632D01*
X65827411Y-77860444D01*
X65839445Y-77867476D01*
X65888169Y-77919114D01*
X65901240Y-77988897D01*
X65874509Y-78054669D01*
X65834055Y-78088027D01*
X65821607Y-78094507D01*
X65817474Y-78097610D01*
X65817471Y-78097612D01*
X65650229Y-78223181D01*
X65642965Y-78228635D01*
X65599556Y-78274060D01*
X65495594Y-78382850D01*
X65488629Y-78390138D01*
X65485715Y-78394410D01*
X65485714Y-78394411D01*
X65462661Y-78428206D01*
X65362743Y-78574680D01*
X65329883Y-78645471D01*
X65274290Y-78765237D01*
X65268688Y-78777305D01*
X65208989Y-78992570D01*
X65185251Y-79214695D01*
X65185548Y-79219848D01*
X65185548Y-79219851D01*
X65191244Y-79318635D01*
X65198110Y-79437715D01*
X65199247Y-79442761D01*
X65199248Y-79442767D01*
X65202322Y-79456405D01*
X65247222Y-79655639D01*
X65331266Y-79862616D01*
X65333965Y-79867020D01*
X65439320Y-80038944D01*
X65447987Y-80053088D01*
X65594250Y-80221938D01*
X65766126Y-80364632D01*
X65836595Y-80405811D01*
X65839445Y-80407476D01*
X65888169Y-80459114D01*
X65901240Y-80528897D01*
X65874509Y-80594669D01*
X65834055Y-80628027D01*
X65821607Y-80634507D01*
X65817474Y-80637610D01*
X65817471Y-80637612D01*
X65793247Y-80655800D01*
X65642965Y-80768635D01*
X65578782Y-80835799D01*
X65495594Y-80922850D01*
X65488629Y-80930138D01*
X65485715Y-80934410D01*
X65485714Y-80934411D01*
X65418803Y-81032499D01*
X65362743Y-81114680D01*
X65268688Y-81317305D01*
X65208989Y-81532570D01*
X65185251Y-81754695D01*
X65185548Y-81759848D01*
X65185548Y-81759851D01*
X65191011Y-81854590D01*
X65198110Y-81977715D01*
X65199247Y-81982761D01*
X65199248Y-81982767D01*
X65219119Y-82070939D01*
X65247222Y-82195639D01*
X65331266Y-82402616D01*
X65333965Y-82407020D01*
X65432519Y-82567846D01*
X65447987Y-82593088D01*
X65594250Y-82761938D01*
X65766126Y-82904632D01*
X65836595Y-82945811D01*
X65839445Y-82947476D01*
X65888169Y-82999114D01*
X65901240Y-83068897D01*
X65874509Y-83134669D01*
X65834055Y-83168027D01*
X65821607Y-83174507D01*
X65817474Y-83177610D01*
X65817471Y-83177612D01*
X65647100Y-83305530D01*
X65642965Y-83308635D01*
X65578782Y-83375799D01*
X65495594Y-83462850D01*
X65488629Y-83470138D01*
X65485715Y-83474410D01*
X65485714Y-83474411D01*
X65407393Y-83589226D01*
X65362743Y-83654680D01*
X65347003Y-83688590D01*
X65274291Y-83845235D01*
X65268688Y-83857305D01*
X65208989Y-84072570D01*
X65185251Y-84294695D01*
X65185548Y-84299848D01*
X65185548Y-84299851D01*
X65191011Y-84394590D01*
X65198110Y-84517715D01*
X65199247Y-84522761D01*
X65199248Y-84522767D01*
X65217832Y-84605226D01*
X65247222Y-84735639D01*
X65331266Y-84942616D01*
X65333965Y-84947020D01*
X65432920Y-85108500D01*
X65447987Y-85133088D01*
X65594250Y-85301938D01*
X65766126Y-85444632D01*
X65836595Y-85485811D01*
X65839445Y-85487476D01*
X65888169Y-85539114D01*
X65901240Y-85608897D01*
X65874509Y-85674669D01*
X65834055Y-85708027D01*
X65821607Y-85714507D01*
X65817474Y-85717610D01*
X65817471Y-85717612D01*
X65665660Y-85831595D01*
X65642965Y-85848635D01*
X65578782Y-85915799D01*
X65495594Y-86002850D01*
X65488629Y-86010138D01*
X65485715Y-86014410D01*
X65485714Y-86014411D01*
X65446329Y-86072148D01*
X65362743Y-86194680D01*
X65268688Y-86397305D01*
X65208989Y-86612570D01*
X65185251Y-86834695D01*
X65185548Y-86839848D01*
X65185548Y-86839851D01*
X65191011Y-86934590D01*
X65198110Y-87057715D01*
X65199247Y-87062761D01*
X65199248Y-87062767D01*
X65217832Y-87145226D01*
X65247222Y-87275639D01*
X65331266Y-87482616D01*
X65354866Y-87521128D01*
X65441072Y-87661803D01*
X65447987Y-87673088D01*
X65594250Y-87841938D01*
X65598230Y-87845242D01*
X65602981Y-87849187D01*
X65642616Y-87908090D01*
X65644113Y-87979071D01*
X65606997Y-88039593D01*
X65566725Y-88064112D01*
X65540592Y-88073909D01*
X65451295Y-88107385D01*
X65334739Y-88194739D01*
X65247385Y-88311295D01*
X65196255Y-88447684D01*
X65189500Y-88509866D01*
X65189500Y-90306134D01*
X65196255Y-90368316D01*
X65233995Y-90468988D01*
X65247385Y-90504705D01*
X65244560Y-90505764D01*
X65256495Y-90560360D01*
X65231752Y-90626906D01*
X65174960Y-90669511D01*
X65130807Y-90677500D01*
X52260520Y-90677500D01*
X52192399Y-90657498D01*
X52145906Y-90603842D01*
X52135802Y-90533568D01*
X52165296Y-90468988D01*
X52179880Y-90455731D01*
X52179374Y-90455133D01*
X52191200Y-90445139D01*
X52342052Y-90294812D01*
X52348730Y-90286965D01*
X52473003Y-90114020D01*
X52478313Y-90105183D01*
X52572670Y-89914267D01*
X52576469Y-89904672D01*
X52638377Y-89700910D01*
X52640555Y-89690837D01*
X52641986Y-89679962D01*
X52639775Y-89665778D01*
X52626617Y-89662000D01*
X51180000Y-89662000D01*
X51111879Y-89641998D01*
X51065386Y-89588342D01*
X51054000Y-89536000D01*
X51054000Y-89280000D01*
X51074002Y-89211879D01*
X51127658Y-89165386D01*
X51180000Y-89154000D01*
X52626344Y-89154000D01*
X52639875Y-89150027D01*
X52641180Y-89140947D01*
X52599214Y-88973875D01*
X52595894Y-88964124D01*
X52510972Y-88768814D01*
X52506105Y-88759739D01*
X52390426Y-88580926D01*
X52384136Y-88572757D01*
X52240806Y-88415240D01*
X52233273Y-88408215D01*
X52066139Y-88276222D01*
X52057556Y-88270520D01*
X52020602Y-88250120D01*
X51970631Y-88199687D01*
X51955859Y-88130245D01*
X51980975Y-88063839D01*
X52008327Y-88037232D01*
X52032040Y-88020318D01*
X52187860Y-87909173D01*
X52251067Y-87846187D01*
X52277943Y-87819404D01*
X52346096Y-87751489D01*
X52349116Y-87747287D01*
X52473435Y-87574277D01*
X52476453Y-87570077D01*
X52486006Y-87550749D01*
X52573136Y-87374453D01*
X52573137Y-87374451D01*
X52575430Y-87369811D01*
X52640370Y-87156069D01*
X52669529Y-86934590D01*
X52671156Y-86868000D01*
X52652852Y-86645361D01*
X52598431Y-86428702D01*
X52509354Y-86223840D01*
X52418094Y-86082774D01*
X52390822Y-86040617D01*
X52390820Y-86040614D01*
X52388014Y-86036277D01*
X52237670Y-85871051D01*
X52233619Y-85867852D01*
X52233615Y-85867848D01*
X52066414Y-85735800D01*
X52066410Y-85735798D01*
X52062359Y-85732598D01*
X52021053Y-85709796D01*
X51971084Y-85659364D01*
X51956312Y-85589921D01*
X51981428Y-85523516D01*
X52008780Y-85496909D01*
X52052603Y-85465650D01*
X52187860Y-85369173D01*
X52346096Y-85211489D01*
X52349116Y-85207287D01*
X52473435Y-85034277D01*
X52476453Y-85030077D01*
X52488146Y-85006419D01*
X52573136Y-84834453D01*
X52573137Y-84834451D01*
X52575430Y-84829811D01*
X52640370Y-84616069D01*
X52669529Y-84394590D01*
X52671156Y-84328000D01*
X52652852Y-84105361D01*
X52598431Y-83888702D01*
X52509354Y-83683840D01*
X52451845Y-83594944D01*
X52390822Y-83500617D01*
X52390820Y-83500614D01*
X52388014Y-83496277D01*
X52237670Y-83331051D01*
X52233619Y-83327852D01*
X52233615Y-83327848D01*
X52066414Y-83195800D01*
X52066410Y-83195798D01*
X52062359Y-83192598D01*
X52021053Y-83169796D01*
X51971084Y-83119364D01*
X51956312Y-83049921D01*
X51981428Y-82983516D01*
X52008780Y-82956909D01*
X52052603Y-82925650D01*
X52187860Y-82829173D01*
X52346096Y-82671489D01*
X52349116Y-82667287D01*
X52473435Y-82494277D01*
X52476453Y-82490077D01*
X52483320Y-82476184D01*
X52573136Y-82294453D01*
X52573137Y-82294451D01*
X52575430Y-82289811D01*
X52640370Y-82076069D01*
X52669529Y-81854590D01*
X52671156Y-81788000D01*
X52652852Y-81565361D01*
X52598431Y-81348702D01*
X52509354Y-81143840D01*
X52388014Y-80956277D01*
X52237670Y-80791051D01*
X52233619Y-80787852D01*
X52233615Y-80787848D01*
X52066414Y-80655800D01*
X52066410Y-80655798D01*
X52062359Y-80652598D01*
X52021053Y-80629796D01*
X51971084Y-80579364D01*
X51956312Y-80509921D01*
X51981428Y-80443516D01*
X52008780Y-80416909D01*
X52062807Y-80378372D01*
X52187860Y-80289173D01*
X52232128Y-80245060D01*
X52281942Y-80195419D01*
X52346096Y-80131489D01*
X52349116Y-80127287D01*
X52352612Y-80122421D01*
X52408607Y-80078773D01*
X52479310Y-80072327D01*
X52542275Y-80105130D01*
X52563386Y-80131804D01*
X52581458Y-80162362D01*
X52595779Y-80176683D01*
X52608619Y-80191716D01*
X52620528Y-80208107D01*
X52654605Y-80236298D01*
X52663384Y-80244288D01*
X53974595Y-81555499D01*
X54008621Y-81617811D01*
X54011500Y-81644594D01*
X54011500Y-82093244D01*
X54026519Y-82207324D01*
X54085314Y-82349268D01*
X54178843Y-82471157D01*
X54185393Y-82476183D01*
X54185394Y-82476184D01*
X54197454Y-82485438D01*
X54300733Y-82564686D01*
X54442676Y-82623481D01*
X54509237Y-82632244D01*
X54552669Y-82637962D01*
X54552670Y-82637962D01*
X54556756Y-82638500D01*
X54783244Y-82638500D01*
X54787330Y-82637962D01*
X54787331Y-82637962D01*
X54897324Y-82623481D01*
X54897527Y-82625026D01*
X54942473Y-82625026D01*
X54942676Y-82623481D01*
X55052669Y-82637962D01*
X55052670Y-82637962D01*
X55056756Y-82638500D01*
X55283244Y-82638500D01*
X55287330Y-82637962D01*
X55287331Y-82637962D01*
X55397324Y-82623481D01*
X55397527Y-82625026D01*
X55442473Y-82625026D01*
X55442676Y-82623481D01*
X55473485Y-82627537D01*
X55538412Y-82656259D01*
X55577504Y-82715524D01*
X55576872Y-82791395D01*
X55551958Y-82868072D01*
X55531996Y-83058000D01*
X55532686Y-83064565D01*
X55545881Y-83190104D01*
X55551958Y-83247928D01*
X55610973Y-83429556D01*
X55614276Y-83435278D01*
X55614277Y-83435279D01*
X55634403Y-83470138D01*
X55706460Y-83594944D01*
X55710878Y-83599851D01*
X55710879Y-83599852D01*
X55760246Y-83654680D01*
X55834247Y-83736866D01*
X55946046Y-83818093D01*
X55989400Y-83874315D01*
X55997295Y-83933198D01*
X55982496Y-84074000D01*
X56002458Y-84263928D01*
X56061473Y-84445556D01*
X56156960Y-84610944D01*
X56161378Y-84615851D01*
X56161379Y-84615852D01*
X56166035Y-84621023D01*
X56284747Y-84752866D01*
X56439248Y-84865118D01*
X56445276Y-84867802D01*
X56445278Y-84867803D01*
X56501499Y-84892834D01*
X56613712Y-84942794D01*
X56707112Y-84962647D01*
X56794056Y-84981128D01*
X56794061Y-84981128D01*
X56800513Y-84982500D01*
X56910500Y-84982500D01*
X56978621Y-85002502D01*
X57025114Y-85056158D01*
X57036500Y-85108500D01*
X57036500Y-85607296D01*
X57016498Y-85675417D01*
X56962842Y-85721910D01*
X56936699Y-85730542D01*
X56867712Y-85745206D01*
X56861682Y-85747891D01*
X56861681Y-85747891D01*
X56699278Y-85820197D01*
X56699276Y-85820198D01*
X56693248Y-85822882D01*
X56687907Y-85826762D01*
X56687906Y-85826763D01*
X56662076Y-85845530D01*
X56538747Y-85935134D01*
X56534326Y-85940044D01*
X56534325Y-85940045D01*
X56441133Y-86043546D01*
X56410960Y-86077056D01*
X56407659Y-86082774D01*
X56323472Y-86228590D01*
X56315473Y-86242444D01*
X56256458Y-86424072D01*
X56236496Y-86614000D01*
X56256458Y-86803928D01*
X56315473Y-86985556D01*
X56410960Y-87150944D01*
X56415378Y-87155851D01*
X56415379Y-87155852D01*
X56518695Y-87270596D01*
X56538747Y-87292866D01*
X56693248Y-87405118D01*
X56699276Y-87407802D01*
X56699278Y-87407803D01*
X56856560Y-87477829D01*
X56867712Y-87482794D01*
X56961112Y-87502647D01*
X57048056Y-87521128D01*
X57048061Y-87521128D01*
X57054513Y-87522500D01*
X57245487Y-87522500D01*
X57251939Y-87521128D01*
X57251944Y-87521128D01*
X57338888Y-87502647D01*
X57432288Y-87482794D01*
X57443440Y-87477829D01*
X57600722Y-87407803D01*
X57600724Y-87407802D01*
X57606752Y-87405118D01*
X57761253Y-87292866D01*
X57816865Y-87231102D01*
X57877310Y-87193864D01*
X57948294Y-87195216D01*
X58007278Y-87234730D01*
X58035536Y-87299860D01*
X58036500Y-87315414D01*
X58036500Y-88055233D01*
X58035973Y-88066416D01*
X58034298Y-88073909D01*
X58034547Y-88081835D01*
X58034547Y-88081836D01*
X58036438Y-88141986D01*
X58036500Y-88145945D01*
X58036500Y-88173856D01*
X58036997Y-88177790D01*
X58036997Y-88177791D01*
X58037005Y-88177856D01*
X58037938Y-88189693D01*
X58039327Y-88233889D01*
X58044978Y-88253339D01*
X58048987Y-88272700D01*
X58051526Y-88292797D01*
X58054445Y-88300168D01*
X58054445Y-88300170D01*
X58067804Y-88333912D01*
X58071649Y-88345142D01*
X58083982Y-88387593D01*
X58088015Y-88394412D01*
X58088017Y-88394417D01*
X58094293Y-88405028D01*
X58102988Y-88422776D01*
X58110448Y-88441617D01*
X58115110Y-88448033D01*
X58115110Y-88448034D01*
X58136436Y-88477387D01*
X58142952Y-88487307D01*
X58156294Y-88509866D01*
X58165458Y-88525362D01*
X58179779Y-88539683D01*
X58192619Y-88554716D01*
X58204528Y-88571107D01*
X58210634Y-88576158D01*
X58238605Y-88599298D01*
X58247384Y-88607288D01*
X58742878Y-89102782D01*
X58776904Y-89165094D01*
X58779092Y-89178703D01*
X58796458Y-89343928D01*
X58855473Y-89525556D01*
X58950960Y-89690944D01*
X59078747Y-89832866D01*
X59233248Y-89945118D01*
X59239276Y-89947802D01*
X59239278Y-89947803D01*
X59401681Y-90020109D01*
X59407712Y-90022794D01*
X59501113Y-90042647D01*
X59588056Y-90061128D01*
X59588061Y-90061128D01*
X59594513Y-90062500D01*
X59785487Y-90062500D01*
X59791939Y-90061128D01*
X59791944Y-90061128D01*
X59878887Y-90042647D01*
X59972288Y-90022794D01*
X59978319Y-90020109D01*
X60140722Y-89947803D01*
X60140724Y-89947802D01*
X60146752Y-89945118D01*
X60301253Y-89832866D01*
X60429040Y-89690944D01*
X60524527Y-89525556D01*
X60583542Y-89343928D01*
X60603504Y-89154000D01*
X60598121Y-89102782D01*
X60584232Y-88970635D01*
X60584232Y-88970633D01*
X60583542Y-88964072D01*
X60524527Y-88782444D01*
X60429040Y-88617056D01*
X60396509Y-88580926D01*
X60305675Y-88480045D01*
X60305674Y-88480044D01*
X60301253Y-88475134D01*
X60178440Y-88385905D01*
X60152094Y-88366763D01*
X60152093Y-88366762D01*
X60146752Y-88362882D01*
X60140724Y-88360198D01*
X60140722Y-88360197D01*
X59978319Y-88287891D01*
X59978318Y-88287891D01*
X59972288Y-88285206D01*
X59867164Y-88262861D01*
X59791944Y-88246872D01*
X59791939Y-88246872D01*
X59785487Y-88245500D01*
X59729595Y-88245500D01*
X59661474Y-88225498D01*
X59640499Y-88208595D01*
X59340404Y-87908499D01*
X59306379Y-87846187D01*
X59303500Y-87819404D01*
X59303500Y-87770473D01*
X59323502Y-87702352D01*
X59377158Y-87655859D01*
X59447432Y-87645755D01*
X59487087Y-87659480D01*
X59487248Y-87659118D01*
X59557981Y-87690610D01*
X59652809Y-87732830D01*
X59661712Y-87736794D01*
X59748009Y-87755137D01*
X59842056Y-87775128D01*
X59842061Y-87775128D01*
X59848513Y-87776500D01*
X60039487Y-87776500D01*
X60045939Y-87775128D01*
X60045944Y-87775128D01*
X60139991Y-87755137D01*
X60226288Y-87736794D01*
X60232319Y-87734109D01*
X60394722Y-87661803D01*
X60394724Y-87661802D01*
X60400752Y-87659118D01*
X60555253Y-87546866D01*
X60683040Y-87404944D01*
X60747748Y-87292866D01*
X60775223Y-87245279D01*
X60775224Y-87245278D01*
X60778527Y-87239556D01*
X60837542Y-87057928D01*
X60850157Y-86937908D01*
X60856814Y-86874565D01*
X60857504Y-86868000D01*
X60837542Y-86678072D01*
X60778527Y-86496444D01*
X60683040Y-86331056D01*
X60603254Y-86242444D01*
X60559675Y-86194045D01*
X60559674Y-86194044D01*
X60555253Y-86189134D01*
X60400752Y-86076882D01*
X60394724Y-86074198D01*
X60394722Y-86074197D01*
X60232319Y-86001891D01*
X60232318Y-86001891D01*
X60226288Y-85999206D01*
X60132888Y-85979353D01*
X60045944Y-85960872D01*
X60045939Y-85960872D01*
X60039487Y-85959500D01*
X59983595Y-85959500D01*
X59915474Y-85939498D01*
X59894500Y-85922595D01*
X59840405Y-85868500D01*
X59806379Y-85806188D01*
X59803500Y-85779405D01*
X59803500Y-85074540D01*
X59823502Y-85006419D01*
X59877158Y-84959926D01*
X59947432Y-84949822D01*
X59955693Y-84951292D01*
X59983812Y-84957269D01*
X60096056Y-84981128D01*
X60096061Y-84981128D01*
X60102513Y-84982500D01*
X60293487Y-84982500D01*
X60299939Y-84981128D01*
X60299944Y-84981128D01*
X60386888Y-84962647D01*
X60480288Y-84942794D01*
X60592501Y-84892834D01*
X60648722Y-84867803D01*
X60648724Y-84867802D01*
X60654752Y-84865118D01*
X60809253Y-84752866D01*
X60927965Y-84621023D01*
X60932621Y-84615852D01*
X60932622Y-84615851D01*
X60937040Y-84610944D01*
X61032527Y-84445556D01*
X61091542Y-84263928D01*
X61111504Y-84074000D01*
X61100626Y-83970504D01*
X61113398Y-83900666D01*
X61161596Y-83849633D01*
X61162752Y-83849118D01*
X61168094Y-83845236D01*
X61168097Y-83845235D01*
X61240003Y-83792992D01*
X61317253Y-83736866D01*
X61391254Y-83654680D01*
X61440621Y-83599852D01*
X61440622Y-83599851D01*
X61445040Y-83594944D01*
X61517097Y-83470138D01*
X61537223Y-83435279D01*
X61537224Y-83435278D01*
X61540527Y-83429556D01*
X61599542Y-83247928D01*
X61605620Y-83190104D01*
X61618814Y-83064565D01*
X61619504Y-83058000D01*
X61599542Y-82868072D01*
X61578540Y-82803435D01*
X61576512Y-82732469D01*
X61613174Y-82671671D01*
X61676886Y-82640346D01*
X61698373Y-82638500D01*
X61783244Y-82638500D01*
X61787330Y-82637962D01*
X61787331Y-82637962D01*
X61897324Y-82623481D01*
X61897527Y-82625026D01*
X61942473Y-82625026D01*
X61942676Y-82623481D01*
X62052669Y-82637962D01*
X62052670Y-82637962D01*
X62056756Y-82638500D01*
X62283244Y-82638500D01*
X62287330Y-82637962D01*
X62287331Y-82637962D01*
X62330763Y-82632244D01*
X62397324Y-82623481D01*
X62404951Y-82620322D01*
X62404954Y-82620321D01*
X62470699Y-82593088D01*
X62539268Y-82564686D01*
X62661157Y-82471157D01*
X62666186Y-82464604D01*
X62749659Y-82355818D01*
X62754686Y-82349267D01*
X62813481Y-82207324D01*
X62828500Y-82093244D01*
X62828500Y-81121594D01*
X62848502Y-81053473D01*
X62865405Y-81032499D01*
X63384247Y-80513657D01*
X63392537Y-80506113D01*
X63399018Y-80502000D01*
X63445659Y-80452332D01*
X63448413Y-80449491D01*
X63468134Y-80429770D01*
X63470612Y-80426575D01*
X63478318Y-80417553D01*
X63503158Y-80391101D01*
X63508586Y-80385321D01*
X63518346Y-80367568D01*
X63529199Y-80351045D01*
X63536753Y-80341306D01*
X63541613Y-80335041D01*
X63559176Y-80294457D01*
X63564383Y-80283827D01*
X63585695Y-80245060D01*
X63587666Y-80237383D01*
X63587668Y-80237378D01*
X63590732Y-80225442D01*
X63597138Y-80206730D01*
X63599318Y-80201694D01*
X63605181Y-80188145D01*
X63606421Y-80180317D01*
X63606423Y-80180310D01*
X63612099Y-80144476D01*
X63614505Y-80132856D01*
X63623528Y-80097711D01*
X63623528Y-80097710D01*
X63625500Y-80090030D01*
X63625500Y-80069776D01*
X63627051Y-80050065D01*
X63628980Y-80037886D01*
X63630220Y-80030057D01*
X63626059Y-79986038D01*
X63625500Y-79974181D01*
X63625500Y-73600524D01*
X63645502Y-73532403D01*
X63657858Y-73516221D01*
X63731040Y-73434944D01*
X63803097Y-73310138D01*
X63823223Y-73275279D01*
X63823224Y-73275278D01*
X63826527Y-73269556D01*
X63885542Y-73087928D01*
X63891620Y-73030104D01*
X63904814Y-72904565D01*
X63905504Y-72898000D01*
X63885542Y-72708072D01*
X63826527Y-72526444D01*
X63815421Y-72507207D01*
X63734341Y-72366774D01*
X63731040Y-72361056D01*
X63703147Y-72330077D01*
X63607675Y-72224045D01*
X63607674Y-72224044D01*
X63603253Y-72219134D01*
X63448752Y-72106882D01*
X63442724Y-72104198D01*
X63442722Y-72104197D01*
X63280319Y-72031891D01*
X63280318Y-72031891D01*
X63274288Y-72029206D01*
X63180888Y-72009353D01*
X63093944Y-71990872D01*
X63093939Y-71990872D01*
X63087487Y-71989500D01*
X62896513Y-71989500D01*
X62890061Y-71990872D01*
X62890056Y-71990872D01*
X62803112Y-72009353D01*
X62709712Y-72029206D01*
X62703682Y-72031891D01*
X62703681Y-72031891D01*
X62541278Y-72104197D01*
X62541276Y-72104198D01*
X62535248Y-72106882D01*
X62380747Y-72219134D01*
X62376326Y-72224044D01*
X62376325Y-72224045D01*
X62280854Y-72330077D01*
X62252960Y-72361056D01*
X62249659Y-72366774D01*
X62168580Y-72507207D01*
X62157473Y-72526444D01*
X62098458Y-72708072D01*
X62078496Y-72898000D01*
X62079186Y-72904565D01*
X62092381Y-73030104D01*
X62098458Y-73087928D01*
X62157473Y-73269556D01*
X62160776Y-73275278D01*
X62160777Y-73275279D01*
X62180903Y-73310138D01*
X62252960Y-73434944D01*
X62326137Y-73516215D01*
X62356853Y-73580221D01*
X62358500Y-73600524D01*
X62358500Y-74405409D01*
X62338498Y-74473530D01*
X62284842Y-74520023D01*
X62214568Y-74530127D01*
X62206303Y-74528656D01*
X62077944Y-74501372D01*
X62077939Y-74501372D01*
X62071487Y-74500000D01*
X61880513Y-74500000D01*
X61874061Y-74501372D01*
X61874056Y-74501372D01*
X61787112Y-74519853D01*
X61693712Y-74539706D01*
X61687682Y-74542391D01*
X61687681Y-74542391D01*
X61525278Y-74614697D01*
X61525276Y-74614698D01*
X61519248Y-74617382D01*
X61513907Y-74621262D01*
X61513906Y-74621263D01*
X61485161Y-74642148D01*
X61364747Y-74729634D01*
X61360326Y-74734544D01*
X61360325Y-74734545D01*
X61284526Y-74818729D01*
X61236960Y-74871556D01*
X61212801Y-74913401D01*
X61151196Y-75020104D01*
X61141473Y-75036944D01*
X61082458Y-75218572D01*
X61081768Y-75225133D01*
X61081768Y-75225135D01*
X61071012Y-75327476D01*
X61062496Y-75408500D01*
X61063186Y-75415065D01*
X61078554Y-75561279D01*
X61082458Y-75598428D01*
X61141473Y-75780056D01*
X61236960Y-75945444D01*
X61310137Y-76026715D01*
X61340853Y-76090721D01*
X61342500Y-76111024D01*
X61342500Y-77182116D01*
X61322498Y-77250237D01*
X61268842Y-77296730D01*
X61216500Y-77308116D01*
X61102123Y-77308116D01*
X61095671Y-77309488D01*
X61095666Y-77309488D01*
X61013187Y-77327020D01*
X60915322Y-77347822D01*
X60909292Y-77350507D01*
X60909291Y-77350507D01*
X60746888Y-77422813D01*
X60746886Y-77422814D01*
X60740858Y-77425498D01*
X60735517Y-77429378D01*
X60735516Y-77429379D01*
X60723379Y-77438197D01*
X60586357Y-77537750D01*
X60581936Y-77542660D01*
X60581935Y-77542661D01*
X60534686Y-77595137D01*
X60458570Y-77679672D01*
X60416713Y-77752171D01*
X60392197Y-77794634D01*
X60363083Y-77845060D01*
X60304068Y-78026688D01*
X60303378Y-78033249D01*
X60303378Y-78033251D01*
X60294825Y-78114633D01*
X60284106Y-78216616D01*
X60284796Y-78223181D01*
X60302344Y-78390138D01*
X60304068Y-78406544D01*
X60311233Y-78428595D01*
X60348470Y-78543199D01*
X60350498Y-78614166D01*
X60313835Y-78674964D01*
X60279883Y-78697242D01*
X60249248Y-78710882D01*
X60094747Y-78823134D01*
X59966960Y-78965056D01*
X59871473Y-79130444D01*
X59812458Y-79312072D01*
X59811768Y-79318633D01*
X59811768Y-79318635D01*
X59798722Y-79442767D01*
X59792496Y-79502000D01*
X59812458Y-79691928D01*
X59871473Y-79873556D01*
X59874776Y-79879277D01*
X59876636Y-79882498D01*
X59877146Y-79884599D01*
X59877461Y-79885307D01*
X59877331Y-79885365D01*
X59893375Y-79951493D01*
X59870156Y-80018586D01*
X59814349Y-80062474D01*
X59767518Y-80071500D01*
X59556756Y-80071500D01*
X59552670Y-80072038D01*
X59552669Y-80072038D01*
X59442676Y-80086519D01*
X59442473Y-80084974D01*
X59397527Y-80084974D01*
X59397324Y-80086519D01*
X59287331Y-80072038D01*
X59287330Y-80072038D01*
X59283244Y-80071500D01*
X59056756Y-80071500D01*
X59052670Y-80072038D01*
X59052669Y-80072038D01*
X58942676Y-80086519D01*
X58942473Y-80084974D01*
X58897527Y-80084974D01*
X58897324Y-80086519D01*
X58787331Y-80072038D01*
X58787330Y-80072038D01*
X58783244Y-80071500D01*
X58556756Y-80071500D01*
X58552670Y-80072038D01*
X58552669Y-80072038D01*
X58442676Y-80086519D01*
X58442507Y-80085234D01*
X58397427Y-80085235D01*
X58397194Y-80087006D01*
X58337960Y-80079208D01*
X58323778Y-80081419D01*
X58318217Y-80100784D01*
X58280189Y-80160737D01*
X58273816Y-80165967D01*
X58246704Y-80186771D01*
X58180484Y-80212372D01*
X58110935Y-80198108D01*
X58093295Y-80186771D01*
X58066092Y-80165897D01*
X58024225Y-80108558D01*
X58021901Y-80101433D01*
X58015956Y-80081187D01*
X58002417Y-80079158D01*
X57942806Y-80087006D01*
X57942573Y-80085235D01*
X57897493Y-80085234D01*
X57897324Y-80086519D01*
X57814999Y-80075681D01*
X57750073Y-80046959D01*
X57710981Y-79987694D01*
X57710136Y-79916702D01*
X57722326Y-79887760D01*
X57723709Y-79885365D01*
X57730527Y-79873556D01*
X57789542Y-79691928D01*
X57809504Y-79502000D01*
X57803278Y-79442767D01*
X57790232Y-79318635D01*
X57790232Y-79318633D01*
X57789542Y-79312072D01*
X57730527Y-79130444D01*
X57635040Y-78965056D01*
X57622662Y-78951309D01*
X57591946Y-78887303D01*
X57600710Y-78816850D01*
X57622661Y-78782693D01*
X57635040Y-78768944D01*
X57730527Y-78603556D01*
X57789542Y-78421928D01*
X57793568Y-78383628D01*
X57808814Y-78238565D01*
X57809504Y-78232000D01*
X57801575Y-78156556D01*
X57790232Y-78048635D01*
X57790232Y-78048633D01*
X57789542Y-78042072D01*
X57730527Y-77860444D01*
X57635040Y-77695056D01*
X57555254Y-77606444D01*
X57511675Y-77558045D01*
X57511674Y-77558044D01*
X57507253Y-77553134D01*
X57352752Y-77440882D01*
X57346724Y-77438198D01*
X57346722Y-77438197D01*
X57184319Y-77365891D01*
X57184318Y-77365891D01*
X57178288Y-77363206D01*
X57084888Y-77343353D01*
X56997944Y-77324872D01*
X56997939Y-77324872D01*
X56991487Y-77323500D01*
X56800513Y-77323500D01*
X56794061Y-77324872D01*
X56794056Y-77324872D01*
X56707112Y-77343353D01*
X56613712Y-77363206D01*
X56607682Y-77365891D01*
X56607681Y-77365891D01*
X56445278Y-77438197D01*
X56445276Y-77438198D01*
X56439248Y-77440882D01*
X56284747Y-77553134D01*
X56280326Y-77558044D01*
X56280325Y-77558045D01*
X56236747Y-77606444D01*
X56156960Y-77695056D01*
X56061473Y-77860444D01*
X56023277Y-77978000D01*
X56020755Y-77985761D01*
X55980682Y-78044367D01*
X55915285Y-78072004D01*
X55845328Y-78059897D01*
X55793022Y-78011891D01*
X55775612Y-77959996D01*
X55758232Y-77794634D01*
X55758231Y-77794631D01*
X55757542Y-77788072D01*
X55698527Y-77606444D01*
X55687421Y-77587207D01*
X55606341Y-77446774D01*
X55603040Y-77441056D01*
X55575147Y-77410077D01*
X55479675Y-77304045D01*
X55479674Y-77304044D01*
X55475253Y-77299134D01*
X55320752Y-77186882D01*
X55314724Y-77184198D01*
X55314722Y-77184197D01*
X55152319Y-77111891D01*
X55152318Y-77111891D01*
X55146288Y-77109206D01*
X55052887Y-77089353D01*
X54965944Y-77070872D01*
X54965939Y-77070872D01*
X54959487Y-77069500D01*
X54768513Y-77069500D01*
X54762061Y-77070872D01*
X54762056Y-77070872D01*
X54675113Y-77089353D01*
X54581712Y-77109206D01*
X54575682Y-77111891D01*
X54575681Y-77111891D01*
X54413278Y-77184197D01*
X54413276Y-77184198D01*
X54407248Y-77186882D01*
X54252747Y-77299134D01*
X54248326Y-77304044D01*
X54248325Y-77304045D01*
X54152854Y-77410077D01*
X54124960Y-77441056D01*
X54121659Y-77446774D01*
X54040580Y-77587207D01*
X54029473Y-77606444D01*
X53970458Y-77788072D01*
X53969768Y-77794634D01*
X53968746Y-77799444D01*
X53935018Y-77861917D01*
X53872868Y-77896238D01*
X53802029Y-77891509D01*
X53744992Y-77849233D01*
X53719865Y-77782832D01*
X53719500Y-77773246D01*
X53719500Y-73600524D01*
X53739502Y-73532403D01*
X53751858Y-73516221D01*
X53825040Y-73434944D01*
X53897097Y-73310138D01*
X53917223Y-73275279D01*
X53917224Y-73275278D01*
X53920527Y-73269556D01*
X53979542Y-73087928D01*
X53985620Y-73030104D01*
X53998814Y-72904565D01*
X53999504Y-72898000D01*
X53979542Y-72708072D01*
X53920527Y-72526444D01*
X53909421Y-72507207D01*
X53828341Y-72366774D01*
X53825040Y-72361056D01*
X53797147Y-72330077D01*
X53701675Y-72224045D01*
X53701674Y-72224044D01*
X53697253Y-72219134D01*
X53542752Y-72106882D01*
X53536724Y-72104198D01*
X53536722Y-72104197D01*
X53374319Y-72031891D01*
X53374318Y-72031891D01*
X53368288Y-72029206D01*
X53274888Y-72009353D01*
X53187944Y-71990872D01*
X53187939Y-71990872D01*
X53181487Y-71989500D01*
X52990513Y-71989500D01*
X52984061Y-71990872D01*
X52984056Y-71990872D01*
X52893024Y-72010222D01*
X52805604Y-72028804D01*
X52805601Y-72028804D01*
X52803712Y-72029206D01*
X52803639Y-72028860D01*
X52736363Y-72030781D01*
X52675566Y-71994116D01*
X52644243Y-71930403D01*
X52643476Y-71892474D01*
X52643789Y-71890101D01*
X52669529Y-71694590D01*
X52671156Y-71628000D01*
X52652852Y-71405361D01*
X52598431Y-71188702D01*
X52509354Y-70983840D01*
X52451845Y-70894944D01*
X52390822Y-70800617D01*
X52390820Y-70800614D01*
X52388014Y-70796277D01*
X52237670Y-70631051D01*
X52233619Y-70627852D01*
X52233615Y-70627848D01*
X52066414Y-70495800D01*
X52066410Y-70495798D01*
X52062359Y-70492598D01*
X52021053Y-70469796D01*
X51971084Y-70419364D01*
X51956312Y-70349921D01*
X51981428Y-70283516D01*
X52008780Y-70256909D01*
X52074746Y-70209856D01*
X52187860Y-70129173D01*
X52207192Y-70109909D01*
X52279257Y-70038095D01*
X52346096Y-69971489D01*
X52349116Y-69967287D01*
X52473435Y-69794277D01*
X52476453Y-69790077D01*
X52479332Y-69784253D01*
X52573136Y-69594453D01*
X52573137Y-69594451D01*
X52575430Y-69589811D01*
X52640370Y-69376069D01*
X52669529Y-69154590D01*
X52671156Y-69088000D01*
X52652852Y-68865361D01*
X52598431Y-68648702D01*
X52509354Y-68443840D01*
X52435076Y-68329023D01*
X52390822Y-68260617D01*
X52390820Y-68260614D01*
X52388014Y-68256277D01*
X52237670Y-68091051D01*
X52233619Y-68087852D01*
X52233615Y-68087848D01*
X52066414Y-67955800D01*
X52066410Y-67955798D01*
X52062359Y-67952598D01*
X52021053Y-67929796D01*
X51971084Y-67879364D01*
X51956312Y-67809921D01*
X51981428Y-67743516D01*
X52008780Y-67716909D01*
X52052603Y-67685650D01*
X52187860Y-67589173D01*
X52346096Y-67431489D01*
X52349116Y-67427287D01*
X52473435Y-67254277D01*
X52476453Y-67250077D01*
X52516327Y-67169399D01*
X52573136Y-67054453D01*
X52573137Y-67054451D01*
X52575430Y-67049811D01*
X52640370Y-66836069D01*
X52641346Y-66828661D01*
X52658967Y-66694816D01*
X52668214Y-66624582D01*
X52696936Y-66559655D01*
X52756201Y-66520564D01*
X52827192Y-66519719D01*
X52882153Y-66551856D01*
X52936697Y-66606305D01*
X52942927Y-66610145D01*
X52966618Y-66624749D01*
X53014110Y-66677522D01*
X53026500Y-66732008D01*
X53026500Y-70091233D01*
X53025973Y-70102416D01*
X53024298Y-70109909D01*
X53024547Y-70117835D01*
X53024547Y-70117836D01*
X53026438Y-70177986D01*
X53026500Y-70181945D01*
X53026500Y-70209856D01*
X53026997Y-70213790D01*
X53026997Y-70213791D01*
X53027005Y-70213856D01*
X53027938Y-70225693D01*
X53029327Y-70269889D01*
X53033286Y-70283516D01*
X53034978Y-70289339D01*
X53038987Y-70308700D01*
X53041526Y-70328797D01*
X53044445Y-70336168D01*
X53044445Y-70336170D01*
X53057804Y-70369912D01*
X53061649Y-70381142D01*
X53073982Y-70423593D01*
X53078015Y-70430412D01*
X53078017Y-70430417D01*
X53084293Y-70441028D01*
X53092988Y-70458776D01*
X53100448Y-70477617D01*
X53105110Y-70484033D01*
X53105110Y-70484034D01*
X53126436Y-70513387D01*
X53132952Y-70523307D01*
X53151226Y-70554206D01*
X53155458Y-70561362D01*
X53169779Y-70575683D01*
X53182619Y-70590716D01*
X53194528Y-70607107D01*
X53219600Y-70627848D01*
X53228605Y-70635298D01*
X53237384Y-70643288D01*
X54397832Y-71803736D01*
X54405376Y-71812026D01*
X54409489Y-71818507D01*
X54415266Y-71823932D01*
X54459156Y-71865147D01*
X54461998Y-71867902D01*
X54481720Y-71887624D01*
X54484844Y-71890047D01*
X54484848Y-71890051D01*
X54484913Y-71890101D01*
X54493934Y-71897806D01*
X54526168Y-71928075D01*
X54533116Y-71931894D01*
X54533118Y-71931896D01*
X54543921Y-71937835D01*
X54560448Y-71948691D01*
X54570187Y-71956246D01*
X54570189Y-71956247D01*
X54576449Y-71961103D01*
X54617029Y-71978663D01*
X54627677Y-71983880D01*
X54640396Y-71990872D01*
X54666429Y-72005184D01*
X54674105Y-72007155D01*
X54674108Y-72007156D01*
X54686051Y-72010222D01*
X54704756Y-72016626D01*
X54723344Y-72024670D01*
X54731167Y-72025909D01*
X54731177Y-72025912D01*
X54767013Y-72031588D01*
X54778633Y-72033994D01*
X54813778Y-72043017D01*
X54821459Y-72044989D01*
X54841713Y-72044989D01*
X54861423Y-72046540D01*
X54881432Y-72049709D01*
X54889324Y-72048963D01*
X54925450Y-72045548D01*
X54937308Y-72044989D01*
X57697989Y-72044989D01*
X57766110Y-72064991D01*
X57812603Y-72118647D01*
X57823989Y-72170989D01*
X57823989Y-74634722D01*
X57823462Y-74645905D01*
X57821787Y-74653398D01*
X57822036Y-74661324D01*
X57822036Y-74661325D01*
X57823927Y-74721475D01*
X57823989Y-74725434D01*
X57823989Y-74753345D01*
X57824486Y-74757279D01*
X57824486Y-74757280D01*
X57824494Y-74757345D01*
X57825427Y-74769182D01*
X57826816Y-74813378D01*
X57832467Y-74832828D01*
X57836476Y-74852189D01*
X57839015Y-74872286D01*
X57841934Y-74879657D01*
X57841934Y-74879659D01*
X57855293Y-74913401D01*
X57859138Y-74924631D01*
X57871471Y-74967082D01*
X57875504Y-74973901D01*
X57875506Y-74973906D01*
X57881782Y-74984517D01*
X57890477Y-75002265D01*
X57897937Y-75021106D01*
X57902599Y-75027522D01*
X57902599Y-75027523D01*
X57923925Y-75056876D01*
X57930441Y-75066796D01*
X57952947Y-75104851D01*
X57967268Y-75119172D01*
X57980109Y-75134206D01*
X57992017Y-75150596D01*
X57989911Y-75152126D01*
X58016229Y-75204154D01*
X58017636Y-75213877D01*
X58033364Y-75363516D01*
X58034458Y-75373928D01*
X58093473Y-75555556D01*
X58188960Y-75720944D01*
X58193378Y-75725851D01*
X58193379Y-75725852D01*
X58299425Y-75843628D01*
X58316747Y-75862866D01*
X58471248Y-75975118D01*
X58477276Y-75977802D01*
X58477278Y-75977803D01*
X58595416Y-76030401D01*
X58645712Y-76052794D01*
X58739113Y-76072647D01*
X58826056Y-76091128D01*
X58826061Y-76091128D01*
X58832513Y-76092500D01*
X59023487Y-76092500D01*
X59029939Y-76091128D01*
X59029944Y-76091128D01*
X59116887Y-76072647D01*
X59210288Y-76052794D01*
X59260584Y-76030401D01*
X59378722Y-75977803D01*
X59378724Y-75977802D01*
X59384752Y-75975118D01*
X59539253Y-75862866D01*
X59556575Y-75843628D01*
X59662621Y-75725852D01*
X59662622Y-75725851D01*
X59667040Y-75720944D01*
X59762527Y-75555556D01*
X59821542Y-75373928D01*
X59822637Y-75363516D01*
X59840814Y-75190565D01*
X59841504Y-75184000D01*
X59827127Y-75047207D01*
X59822232Y-75000635D01*
X59822232Y-75000633D01*
X59821542Y-74994072D01*
X59762527Y-74812444D01*
X59747849Y-74787020D01*
X59717552Y-74734545D01*
X59667040Y-74647056D01*
X59655935Y-74634722D01*
X59543675Y-74510045D01*
X59543674Y-74510044D01*
X59539253Y-74505134D01*
X59384752Y-74392882D01*
X59378724Y-74390198D01*
X59378722Y-74390197D01*
X59216319Y-74317891D01*
X59216318Y-74317891D01*
X59210288Y-74315206D01*
X59190792Y-74311062D01*
X59128319Y-74277334D01*
X59093997Y-74215184D01*
X59090989Y-74187815D01*
X59090989Y-71646500D01*
X59110991Y-71578379D01*
X59164647Y-71531886D01*
X59216989Y-71520500D01*
X59277487Y-71520500D01*
X59283939Y-71519128D01*
X59283944Y-71519128D01*
X59370888Y-71500647D01*
X59464288Y-71480794D01*
X59470319Y-71478109D01*
X59632722Y-71405803D01*
X59632724Y-71405802D01*
X59638752Y-71403118D01*
X59793253Y-71290866D01*
X59921040Y-71148944D01*
X60016527Y-70983556D01*
X60075542Y-70801928D01*
X60076538Y-70792457D01*
X60094814Y-70618565D01*
X60095504Y-70612000D01*
X60086182Y-70523307D01*
X60076232Y-70428635D01*
X60076232Y-70428633D01*
X60075542Y-70422072D01*
X60016527Y-70240444D01*
X60007141Y-70224186D01*
X59954015Y-70132171D01*
X59921040Y-70075056D01*
X59847863Y-69993785D01*
X59817147Y-69929779D01*
X59815500Y-69909476D01*
X59815500Y-69900413D01*
X59835502Y-69832292D01*
X59889158Y-69785799D01*
X59957945Y-69775491D01*
X60056756Y-69788500D01*
X60283244Y-69788500D01*
X60287330Y-69787962D01*
X60287331Y-69787962D01*
X60397324Y-69773481D01*
X60397527Y-69775026D01*
X60442473Y-69775026D01*
X60442676Y-69773481D01*
X60552669Y-69787962D01*
X60552670Y-69787962D01*
X60556756Y-69788500D01*
X60783244Y-69788500D01*
X60787330Y-69787962D01*
X60787331Y-69787962D01*
X60897324Y-69773481D01*
X60897527Y-69775026D01*
X60942473Y-69775026D01*
X60942676Y-69773481D01*
X61052669Y-69787962D01*
X61052670Y-69787962D01*
X61056756Y-69788500D01*
X61283244Y-69788500D01*
X61287330Y-69787962D01*
X61287331Y-69787962D01*
X61397324Y-69773481D01*
X61397527Y-69775026D01*
X61442473Y-69775026D01*
X61442676Y-69773481D01*
X61552669Y-69787962D01*
X61552670Y-69787962D01*
X61556756Y-69788500D01*
X61783244Y-69788500D01*
X61787330Y-69787962D01*
X61787331Y-69787962D01*
X61897324Y-69773481D01*
X61897527Y-69775026D01*
X61942473Y-69775026D01*
X61942676Y-69773481D01*
X62056756Y-69788500D01*
X62060881Y-69788500D01*
X62061873Y-69788565D01*
X62128540Y-69812977D01*
X62171426Y-69869557D01*
X62176915Y-69940341D01*
X62162756Y-69977293D01*
X62157473Y-69986444D01*
X62098458Y-70168072D01*
X62097768Y-70174633D01*
X62097768Y-70174635D01*
X62086957Y-70277497D01*
X62078496Y-70358000D01*
X62079186Y-70364565D01*
X62095333Y-70518192D01*
X62098458Y-70547928D01*
X62157473Y-70729556D01*
X62160776Y-70735278D01*
X62160777Y-70735279D01*
X62178862Y-70766603D01*
X62252960Y-70894944D01*
X62257378Y-70899851D01*
X62257379Y-70899852D01*
X62376325Y-71031955D01*
X62380747Y-71036866D01*
X62479843Y-71108864D01*
X62517423Y-71136167D01*
X62535248Y-71149118D01*
X62541276Y-71151802D01*
X62541278Y-71151803D01*
X62635426Y-71193720D01*
X62709712Y-71226794D01*
X62803113Y-71246647D01*
X62890056Y-71265128D01*
X62890061Y-71265128D01*
X62896513Y-71266500D01*
X63087487Y-71266500D01*
X63093939Y-71265128D01*
X63093944Y-71265128D01*
X63180887Y-71246647D01*
X63274288Y-71226794D01*
X63348574Y-71193720D01*
X63442722Y-71151803D01*
X63442724Y-71151802D01*
X63448752Y-71149118D01*
X63466578Y-71136167D01*
X63504157Y-71108864D01*
X63603253Y-71036866D01*
X63607675Y-71031955D01*
X63726621Y-70899852D01*
X63726622Y-70899851D01*
X63731040Y-70894944D01*
X63805138Y-70766603D01*
X63823223Y-70735279D01*
X63823224Y-70735278D01*
X63826527Y-70729556D01*
X63885542Y-70547928D01*
X63888668Y-70518192D01*
X63904814Y-70364565D01*
X63905504Y-70358000D01*
X63897043Y-70277497D01*
X63886232Y-70174635D01*
X63886232Y-70174633D01*
X63885542Y-70168072D01*
X63826527Y-69986444D01*
X63815421Y-69967207D01*
X63759042Y-69869557D01*
X63731040Y-69821056D01*
X63657863Y-69739785D01*
X63627147Y-69675779D01*
X63625500Y-69655476D01*
X63625500Y-69405768D01*
X63626027Y-69394585D01*
X63627702Y-69387092D01*
X63625562Y-69319001D01*
X63625500Y-69315044D01*
X63625500Y-69287144D01*
X63624996Y-69283153D01*
X63624063Y-69271311D01*
X63622923Y-69235036D01*
X63622674Y-69227111D01*
X63617021Y-69207652D01*
X63613012Y-69188293D01*
X63612846Y-69186983D01*
X63610474Y-69168203D01*
X63607558Y-69160837D01*
X63607556Y-69160831D01*
X63594200Y-69127098D01*
X63590355Y-69115868D01*
X63580230Y-69081017D01*
X63580230Y-69081016D01*
X63578019Y-69073407D01*
X63567705Y-69055966D01*
X63559008Y-69038213D01*
X63554472Y-69026758D01*
X63551552Y-69019383D01*
X63525563Y-68983612D01*
X63519047Y-68973692D01*
X63500578Y-68942463D01*
X63496542Y-68935638D01*
X63482221Y-68921317D01*
X63469380Y-68906283D01*
X63462131Y-68896306D01*
X63457472Y-68889893D01*
X63451367Y-68884842D01*
X63451362Y-68884837D01*
X63423396Y-68861701D01*
X63414618Y-68853713D01*
X63023055Y-68462150D01*
X62989029Y-68399838D01*
X62994094Y-68329023D01*
X63036641Y-68272187D01*
X63085952Y-68249809D01*
X63151980Y-68235774D01*
X63151989Y-68235771D01*
X63158444Y-68234399D01*
X63164475Y-68231714D01*
X63326878Y-68159408D01*
X63326880Y-68159407D01*
X63332908Y-68156723D01*
X63487409Y-68044471D01*
X63615196Y-67902549D01*
X63687487Y-67777338D01*
X63707379Y-67742884D01*
X63707380Y-67742883D01*
X63710683Y-67737161D01*
X63769698Y-67555533D01*
X63783186Y-67427207D01*
X63788970Y-67372170D01*
X63789660Y-67365605D01*
X63769698Y-67175677D01*
X63710683Y-66994049D01*
X63615196Y-66828661D01*
X63536558Y-66741324D01*
X63491831Y-66691650D01*
X63491830Y-66691649D01*
X63487409Y-66686739D01*
X63332908Y-66574487D01*
X63326880Y-66571803D01*
X63326878Y-66571802D01*
X63164475Y-66499496D01*
X63164474Y-66499496D01*
X63158444Y-66496811D01*
X63065044Y-66476958D01*
X62978100Y-66458477D01*
X62978095Y-66458477D01*
X62971643Y-66457105D01*
X62780669Y-66457105D01*
X62774217Y-66458477D01*
X62774212Y-66458477D01*
X62687268Y-66476958D01*
X62593868Y-66496811D01*
X62587838Y-66499496D01*
X62587837Y-66499496D01*
X62425434Y-66571802D01*
X62425432Y-66571803D01*
X62419404Y-66574487D01*
X62414063Y-66578367D01*
X62414062Y-66578368D01*
X62324811Y-66643213D01*
X62264903Y-66686739D01*
X62260488Y-66691642D01*
X62255576Y-66696065D01*
X62254451Y-66694816D01*
X62201142Y-66727656D01*
X62167956Y-66732105D01*
X62048156Y-66732105D01*
X62036973Y-66731578D01*
X62029480Y-66729903D01*
X62021554Y-66730152D01*
X62021553Y-66730152D01*
X61977458Y-66731538D01*
X61908743Y-66713686D01*
X61860587Y-66661517D01*
X61847500Y-66605600D01*
X61847500Y-65980524D01*
X61867502Y-65912403D01*
X61879858Y-65896221D01*
X61953040Y-65814944D01*
X62025097Y-65690138D01*
X62045223Y-65655279D01*
X62045224Y-65655278D01*
X62048527Y-65649556D01*
X62107542Y-65467928D01*
X62113620Y-65410104D01*
X62126814Y-65284565D01*
X62127504Y-65278000D01*
X62111037Y-65121327D01*
X62108232Y-65094635D01*
X62108232Y-65094633D01*
X62107542Y-65088072D01*
X62048527Y-64906444D01*
X62037421Y-64887207D01*
X61956341Y-64746774D01*
X61953040Y-64741056D01*
X61948435Y-64735941D01*
X61829675Y-64604045D01*
X61829674Y-64604044D01*
X61825253Y-64599134D01*
X61670752Y-64486882D01*
X61664724Y-64484198D01*
X61664722Y-64484197D01*
X61502319Y-64411891D01*
X61502318Y-64411891D01*
X61496288Y-64409206D01*
X61383721Y-64385279D01*
X61315944Y-64370872D01*
X61315939Y-64370872D01*
X61309487Y-64369500D01*
X61248989Y-64369500D01*
X61180868Y-64349498D01*
X61134375Y-64295842D01*
X61122989Y-64243500D01*
X61122989Y-63480185D01*
X61142991Y-63412064D01*
X61196647Y-63365571D01*
X61222792Y-63356938D01*
X61242288Y-63352794D01*
X61282973Y-63334680D01*
X61410722Y-63277803D01*
X61410724Y-63277802D01*
X61416752Y-63275118D01*
X61448500Y-63252052D01*
X61500602Y-63214197D01*
X61571253Y-63162866D01*
X61588575Y-63143628D01*
X61694621Y-63025852D01*
X61694622Y-63025851D01*
X61699040Y-63020944D01*
X61784688Y-62872598D01*
X61791223Y-62861279D01*
X61791224Y-62861278D01*
X61794527Y-62855556D01*
X61853542Y-62673928D01*
X61854637Y-62663516D01*
X61872814Y-62490565D01*
X61873504Y-62484000D01*
X61866286Y-62415328D01*
X61854232Y-62300635D01*
X61854232Y-62300633D01*
X61853542Y-62294072D01*
X61794527Y-62112444D01*
X61779849Y-62087020D01*
X61757314Y-62047990D01*
X61699040Y-61947056D01*
X61669727Y-61914500D01*
X61575675Y-61810045D01*
X61575674Y-61810044D01*
X61571253Y-61805134D01*
X61422332Y-61696936D01*
X61378978Y-61640713D01*
X61372903Y-61569977D01*
X61406035Y-61507186D01*
X61422332Y-61493064D01*
X61495573Y-61439851D01*
X61571253Y-61384866D01*
X61636712Y-61312166D01*
X61694621Y-61247852D01*
X61694622Y-61247851D01*
X61699040Y-61242944D01*
X61786640Y-61091217D01*
X61791223Y-61083279D01*
X61791224Y-61083278D01*
X61794527Y-61077556D01*
X61853542Y-60895928D01*
X61864184Y-60794680D01*
X61872814Y-60712565D01*
X61873504Y-60706000D01*
X61872814Y-60699435D01*
X61854232Y-60522635D01*
X61854232Y-60522633D01*
X61853542Y-60516072D01*
X61794527Y-60334444D01*
X61699040Y-60169056D01*
X61632010Y-60094611D01*
X61575675Y-60032045D01*
X61575674Y-60032044D01*
X61571253Y-60027134D01*
X61455344Y-59942921D01*
X61422094Y-59918763D01*
X61422093Y-59918762D01*
X61416752Y-59914882D01*
X61410724Y-59912198D01*
X61410722Y-59912197D01*
X61248319Y-59839891D01*
X61248318Y-59839891D01*
X61242288Y-59837206D01*
X61121300Y-59811489D01*
X61061944Y-59798872D01*
X61061939Y-59798872D01*
X61055487Y-59797500D01*
X60864513Y-59797500D01*
X60858061Y-59798872D01*
X60858056Y-59798872D01*
X60729697Y-59826156D01*
X60658906Y-59820754D01*
X60602274Y-59777937D01*
X60577780Y-59711299D01*
X60577500Y-59702909D01*
X60577500Y-59200500D01*
X60597502Y-59132379D01*
X60651158Y-59085886D01*
X60703500Y-59074500D01*
X60755742Y-59074500D01*
X60823863Y-59094502D01*
X60870356Y-59148158D01*
X60873722Y-59156265D01*
X60881385Y-59176705D01*
X60968739Y-59293261D01*
X61085295Y-59380615D01*
X61221684Y-59431745D01*
X61283866Y-59438500D01*
X63380134Y-59438500D01*
X63442316Y-59431745D01*
X63578705Y-59380615D01*
X63695261Y-59293261D01*
X63782615Y-59176705D01*
X63833745Y-59040316D01*
X63840500Y-58978134D01*
X63840500Y-57381866D01*
X63833745Y-57319684D01*
X63782615Y-57183295D01*
X63724360Y-57105565D01*
X63699512Y-57039058D01*
X63714565Y-56969676D01*
X63724360Y-56954435D01*
X63777229Y-56883892D01*
X63777230Y-56883890D01*
X63782615Y-56876705D01*
X63833745Y-56740316D01*
X63840500Y-56678134D01*
X63840500Y-55081866D01*
X63833745Y-55019684D01*
X63782615Y-54883295D01*
X63747241Y-54836095D01*
X63724360Y-54805565D01*
X63699512Y-54739058D01*
X63714565Y-54669676D01*
X63724360Y-54654435D01*
X63777229Y-54583892D01*
X63777230Y-54583890D01*
X63782615Y-54576705D01*
X63833745Y-54440316D01*
X63840500Y-54378134D01*
X63840500Y-52781866D01*
X63833745Y-52719684D01*
X63782615Y-52583295D01*
X63695261Y-52466739D01*
X63578705Y-52379385D01*
X63442316Y-52328255D01*
X63380134Y-52321500D01*
X63178595Y-52321500D01*
X63110474Y-52301498D01*
X63063981Y-52247842D01*
X63053877Y-52177568D01*
X63083371Y-52112988D01*
X63089500Y-52106404D01*
X63134026Y-52061879D01*
X63217501Y-51978404D01*
X63279813Y-51944379D01*
X63306596Y-51941500D01*
X65272274Y-51941500D01*
X65340395Y-51961502D01*
G37*
%TD.AperFunction*%
%TA.AperFunction,Conductor*%
G36*
X59020621Y-60472002D02*
G01*
X59067114Y-60525658D01*
X59078500Y-60578000D01*
X59078500Y-61023096D01*
X59058498Y-61091217D01*
X59052069Y-61100309D01*
X59040835Y-61114793D01*
X59037690Y-61122062D01*
X59037687Y-61122066D01*
X59023275Y-61155371D01*
X59018058Y-61166021D01*
X58996754Y-61204774D01*
X58994783Y-61212449D01*
X58994783Y-61212450D01*
X58991716Y-61224396D01*
X58985312Y-61243100D01*
X58977268Y-61261689D01*
X58976029Y-61269512D01*
X58976026Y-61269522D01*
X58970350Y-61305358D01*
X58967944Y-61316978D01*
X58956949Y-61359804D01*
X58956949Y-61380058D01*
X58955398Y-61399768D01*
X58952229Y-61419777D01*
X58952975Y-61427669D01*
X58956390Y-61463795D01*
X58956949Y-61475653D01*
X58956949Y-64091261D01*
X58936947Y-64159382D01*
X58883291Y-64205875D01*
X58813017Y-64215979D01*
X58779700Y-64206368D01*
X58771612Y-64202767D01*
X58664788Y-64155206D01*
X58658329Y-64153833D01*
X58656593Y-64153269D01*
X58597986Y-64113198D01*
X58570347Y-64047802D01*
X58570215Y-64020265D01*
X58570814Y-64014565D01*
X58571504Y-64008000D01*
X58551542Y-63818072D01*
X58492527Y-63636444D01*
X58397040Y-63471056D01*
X58343924Y-63412064D01*
X58273675Y-63334045D01*
X58273674Y-63334044D01*
X58269253Y-63329134D01*
X58154829Y-63246000D01*
X58120094Y-63220763D01*
X58120093Y-63220762D01*
X58114752Y-63216882D01*
X58108724Y-63214198D01*
X58108722Y-63214197D01*
X57946319Y-63141891D01*
X57946318Y-63141891D01*
X57940288Y-63139206D01*
X57846887Y-63119353D01*
X57759944Y-63100872D01*
X57759939Y-63100872D01*
X57753487Y-63099500D01*
X57562513Y-63099500D01*
X57556061Y-63100872D01*
X57556056Y-63100872D01*
X57469113Y-63119353D01*
X57375712Y-63139206D01*
X57369682Y-63141891D01*
X57369681Y-63141891D01*
X57207278Y-63214197D01*
X57207276Y-63214198D01*
X57201248Y-63216882D01*
X57195907Y-63220762D01*
X57195906Y-63220763D01*
X57161171Y-63246000D01*
X57046747Y-63329134D01*
X57042326Y-63334044D01*
X57042325Y-63334045D01*
X56972077Y-63412064D01*
X56918960Y-63471056D01*
X56823473Y-63636444D01*
X56821431Y-63642729D01*
X56794272Y-63726316D01*
X56754199Y-63784922D01*
X56688802Y-63812559D01*
X56618845Y-63800452D01*
X56594267Y-63777895D01*
X56591486Y-63781104D01*
X56562135Y-63755671D01*
X56554452Y-63754000D01*
X55832115Y-63754000D01*
X55816876Y-63758475D01*
X55815671Y-63759865D01*
X55814000Y-63767548D01*
X55814000Y-65660000D01*
X55793998Y-65728121D01*
X55740342Y-65774614D01*
X55688000Y-65786000D01*
X55432000Y-65786000D01*
X55363879Y-65765998D01*
X55317386Y-65712342D01*
X55306000Y-65660000D01*
X55306000Y-63227885D01*
X55814000Y-63227885D01*
X55818475Y-63243124D01*
X55819865Y-63244329D01*
X55827548Y-63246000D01*
X56549884Y-63246000D01*
X56565123Y-63241525D01*
X56566328Y-63240135D01*
X56567999Y-63232452D01*
X56567999Y-62977905D01*
X56567662Y-62971386D01*
X56557743Y-62875794D01*
X56554851Y-62862400D01*
X56503412Y-62708216D01*
X56497239Y-62695038D01*
X56411937Y-62557193D01*
X56402901Y-62545792D01*
X56288171Y-62431261D01*
X56276760Y-62422249D01*
X56138757Y-62337184D01*
X56125576Y-62331037D01*
X55971290Y-62279862D01*
X55957914Y-62276995D01*
X55863562Y-62267328D01*
X55857145Y-62267000D01*
X55832115Y-62267000D01*
X55816876Y-62271475D01*
X55815671Y-62272865D01*
X55814000Y-62280548D01*
X55814000Y-63227885D01*
X55306000Y-63227885D01*
X55306000Y-62285116D01*
X55301525Y-62269877D01*
X55300135Y-62268672D01*
X55292452Y-62267001D01*
X55262905Y-62267001D01*
X55256386Y-62267338D01*
X55160794Y-62277257D01*
X55147400Y-62280149D01*
X54993216Y-62331588D01*
X54980038Y-62337761D01*
X54842193Y-62423063D01*
X54830792Y-62432099D01*
X54716262Y-62546828D01*
X54709206Y-62555762D01*
X54651288Y-62596823D01*
X54580365Y-62600053D01*
X54518954Y-62564426D01*
X54512154Y-62556593D01*
X54508478Y-62550652D01*
X54383303Y-62425695D01*
X54378507Y-62422739D01*
X54337845Y-62365386D01*
X54331000Y-62324422D01*
X54331000Y-61888634D01*
X54351002Y-61820513D01*
X54390697Y-61781490D01*
X54428120Y-61758332D01*
X54434348Y-61754478D01*
X54520784Y-61667891D01*
X54583066Y-61633812D01*
X54653886Y-61638815D01*
X54698976Y-61667736D01*
X54786697Y-61755305D01*
X54792927Y-61759145D01*
X54792928Y-61759146D01*
X54931031Y-61844274D01*
X54937262Y-61848115D01*
X55005041Y-61870596D01*
X55098611Y-61901632D01*
X55098613Y-61901632D01*
X55105139Y-61903797D01*
X55111975Y-61904497D01*
X55111978Y-61904498D01*
X55155031Y-61908909D01*
X55209600Y-61914500D01*
X55835400Y-61914500D01*
X55838646Y-61914163D01*
X55838650Y-61914163D01*
X55934308Y-61904238D01*
X55934312Y-61904237D01*
X55941166Y-61903526D01*
X55947702Y-61901345D01*
X55947704Y-61901345D01*
X56079806Y-61857272D01*
X56108946Y-61847550D01*
X56194675Y-61794499D01*
X56263127Y-61775661D01*
X56327094Y-61794384D01*
X56338235Y-61801251D01*
X56408030Y-61844274D01*
X56408033Y-61844275D01*
X56414262Y-61848115D01*
X56482041Y-61870596D01*
X56575611Y-61901632D01*
X56575613Y-61901632D01*
X56582139Y-61903797D01*
X56588975Y-61904497D01*
X56588978Y-61904498D01*
X56632031Y-61908909D01*
X56686600Y-61914500D01*
X57312400Y-61914500D01*
X57315646Y-61914163D01*
X57315650Y-61914163D01*
X57411308Y-61904238D01*
X57411312Y-61904237D01*
X57418166Y-61903526D01*
X57424702Y-61901345D01*
X57424704Y-61901345D01*
X57556806Y-61857272D01*
X57585946Y-61847550D01*
X57736348Y-61754478D01*
X57797837Y-61692882D01*
X57823138Y-61667537D01*
X57885421Y-61633458D01*
X57956241Y-61638461D01*
X58001329Y-61667382D01*
X58083829Y-61749739D01*
X58095240Y-61758751D01*
X58233243Y-61843816D01*
X58246424Y-61849963D01*
X58400710Y-61901138D01*
X58414086Y-61904005D01*
X58508438Y-61913672D01*
X58514854Y-61914000D01*
X58552385Y-61914000D01*
X58567624Y-61909525D01*
X58568829Y-61908135D01*
X58570500Y-61900452D01*
X58570500Y-60578000D01*
X58590502Y-60509879D01*
X58644158Y-60463386D01*
X58696500Y-60452000D01*
X58952500Y-60452000D01*
X59020621Y-60472002D01*
G37*
%TD.AperFunction*%
%TA.AperFunction,Conductor*%
G36*
X60475527Y-51011502D02*
G01*
X60496501Y-51028405D01*
X61574500Y-52106405D01*
X61608526Y-52168717D01*
X61603461Y-52239533D01*
X61560914Y-52296368D01*
X61494394Y-52321179D01*
X61485405Y-52321500D01*
X61283866Y-52321500D01*
X61221684Y-52328255D01*
X61085295Y-52379385D01*
X60968739Y-52466739D01*
X60881385Y-52583295D01*
X60830255Y-52719684D01*
X60823500Y-52781866D01*
X60823500Y-53900812D01*
X60803498Y-53968933D01*
X60749842Y-54015426D01*
X60679568Y-54025530D01*
X60614988Y-53996036D01*
X60603864Y-53985122D01*
X60559675Y-53936045D01*
X60559674Y-53936044D01*
X60555253Y-53931134D01*
X60400752Y-53818882D01*
X60394724Y-53816198D01*
X60394722Y-53816197D01*
X60232319Y-53743891D01*
X60232318Y-53743891D01*
X60226288Y-53741206D01*
X60132888Y-53721353D01*
X60045944Y-53702872D01*
X60045939Y-53702872D01*
X60039487Y-53701500D01*
X59848513Y-53701500D01*
X59842061Y-53702872D01*
X59842056Y-53702872D01*
X59755113Y-53721353D01*
X59661712Y-53741206D01*
X59655682Y-53743891D01*
X59655681Y-53743891D01*
X59493278Y-53816197D01*
X59493276Y-53816198D01*
X59487248Y-53818882D01*
X59332747Y-53931134D01*
X59328326Y-53936044D01*
X59328325Y-53936045D01*
X59247753Y-54025530D01*
X59204960Y-54073056D01*
X59109473Y-54238444D01*
X59050458Y-54420072D01*
X59049768Y-54426633D01*
X59049768Y-54426635D01*
X59039176Y-54527411D01*
X59030496Y-54610000D01*
X59031186Y-54616565D01*
X59047475Y-54771542D01*
X59050458Y-54799928D01*
X59109473Y-54981556D01*
X59112776Y-54987278D01*
X59112777Y-54987279D01*
X59131031Y-55018896D01*
X59204960Y-55146944D01*
X59278137Y-55228215D01*
X59308853Y-55292221D01*
X59310500Y-55312524D01*
X59310500Y-56313497D01*
X59290498Y-56381618D01*
X59236842Y-56428111D01*
X59166568Y-56438215D01*
X59101988Y-56408721D01*
X59064667Y-56352433D01*
X59040069Y-56276729D01*
X59038027Y-56270444D01*
X58942540Y-56105056D01*
X58924302Y-56084800D01*
X58819175Y-55968045D01*
X58819174Y-55968044D01*
X58814753Y-55963134D01*
X58670137Y-55858064D01*
X58665594Y-55854763D01*
X58665593Y-55854762D01*
X58660252Y-55850882D01*
X58654224Y-55848198D01*
X58654222Y-55848197D01*
X58491819Y-55775891D01*
X58491818Y-55775891D01*
X58485788Y-55773206D01*
X58392387Y-55753353D01*
X58305444Y-55734872D01*
X58305439Y-55734872D01*
X58298987Y-55733500D01*
X58108013Y-55733500D01*
X58101561Y-55734872D01*
X58101556Y-55734872D01*
X58014613Y-55753353D01*
X57921212Y-55773206D01*
X57915182Y-55775891D01*
X57915181Y-55775891D01*
X57752778Y-55848197D01*
X57752776Y-55848198D01*
X57746748Y-55850882D01*
X57741410Y-55854760D01*
X57741407Y-55854762D01*
X57740560Y-55855378D01*
X57739987Y-55855582D01*
X57735689Y-55858064D01*
X57735235Y-55857278D01*
X57673692Y-55879236D01*
X57604540Y-55863154D01*
X57555061Y-55812240D01*
X57540500Y-55753441D01*
X57540500Y-53931866D01*
X57533745Y-53869684D01*
X57482615Y-53733295D01*
X57395261Y-53616739D01*
X57278705Y-53529385D01*
X57142316Y-53478255D01*
X57080134Y-53471500D01*
X56892032Y-53471500D01*
X56823911Y-53451498D01*
X56777418Y-53397842D01*
X56767314Y-53327568D01*
X56796808Y-53262988D01*
X56852156Y-53225976D01*
X56925784Y-53201412D01*
X56938962Y-53195239D01*
X57076807Y-53109937D01*
X57088208Y-53100901D01*
X57202739Y-52986171D01*
X57211751Y-52974760D01*
X57296816Y-52836757D01*
X57302963Y-52823576D01*
X57354138Y-52669290D01*
X57357005Y-52655914D01*
X57366672Y-52561562D01*
X57367000Y-52555146D01*
X57367000Y-52530115D01*
X57362525Y-52514876D01*
X57361135Y-52513671D01*
X57353452Y-52512000D01*
X54374115Y-52512000D01*
X54358876Y-52516475D01*
X54357671Y-52517865D01*
X54356000Y-52525548D01*
X54356000Y-53247884D01*
X54360475Y-53263123D01*
X54361865Y-53264328D01*
X54369548Y-53265999D01*
X54624095Y-53265999D01*
X54630614Y-53265662D01*
X54726206Y-53255743D01*
X54739600Y-53252851D01*
X54893784Y-53201412D01*
X54906962Y-53195239D01*
X55051035Y-53106083D01*
X55052663Y-53108714D01*
X55105582Y-53087304D01*
X55175344Y-53100485D01*
X55185825Y-53107208D01*
X55186009Y-53106910D01*
X55330243Y-53195816D01*
X55343426Y-53201964D01*
X55415612Y-53225907D01*
X55473972Y-53266338D01*
X55501209Y-53331902D01*
X55488676Y-53401784D01*
X55440351Y-53453795D01*
X55375945Y-53471500D01*
X54983866Y-53471500D01*
X54921684Y-53478255D01*
X54785295Y-53529385D01*
X54668739Y-53616739D01*
X54581385Y-53733295D01*
X54530255Y-53869684D01*
X54523500Y-53931866D01*
X54523500Y-54194685D01*
X54503498Y-54262806D01*
X54449842Y-54309299D01*
X54423697Y-54317932D01*
X54354822Y-54332572D01*
X54348792Y-54335257D01*
X54348791Y-54335257D01*
X54186388Y-54407563D01*
X54186386Y-54407564D01*
X54180358Y-54410248D01*
X54025857Y-54522500D01*
X54021436Y-54527410D01*
X54021435Y-54527411D01*
X53941161Y-54616565D01*
X53898070Y-54664422D01*
X53859349Y-54731489D01*
X53809384Y-54818031D01*
X53802583Y-54829810D01*
X53743568Y-55011438D01*
X53742878Y-55017999D01*
X53742878Y-55018001D01*
X53738557Y-55059114D01*
X53723606Y-55201366D01*
X53724296Y-55207931D01*
X53728729Y-55250104D01*
X53743568Y-55391294D01*
X53802583Y-55572922D01*
X53898070Y-55738310D01*
X53902488Y-55743217D01*
X53902489Y-55743218D01*
X53999430Y-55850882D01*
X54025857Y-55880232D01*
X54180358Y-55992484D01*
X54186386Y-55995168D01*
X54186388Y-55995169D01*
X54243519Y-56020605D01*
X54354822Y-56070160D01*
X54422467Y-56084538D01*
X54423697Y-56084800D01*
X54486171Y-56118529D01*
X54520492Y-56180678D01*
X54523500Y-56208047D01*
X54523500Y-57828134D01*
X54530255Y-57890316D01*
X54581385Y-58026705D01*
X54668739Y-58143261D01*
X54785295Y-58230615D01*
X54921684Y-58281745D01*
X54929537Y-58282598D01*
X54929541Y-58282599D01*
X54934599Y-58283148D01*
X55000161Y-58310388D01*
X55040589Y-58368750D01*
X55043046Y-58439704D01*
X55010089Y-58497506D01*
X54047000Y-59460595D01*
X53984688Y-59494621D01*
X53957905Y-59497500D01*
X53384600Y-59497500D01*
X53381354Y-59497837D01*
X53381350Y-59497837D01*
X53285692Y-59507762D01*
X53285688Y-59507763D01*
X53278834Y-59508474D01*
X53272298Y-59510655D01*
X53272296Y-59510655D01*
X53176498Y-59542616D01*
X53111054Y-59564450D01*
X52960652Y-59657522D01*
X52835695Y-59782697D01*
X52831855Y-59788927D01*
X52831854Y-59788928D01*
X52754215Y-59914882D01*
X52742885Y-59933262D01*
X52687203Y-60101139D01*
X52676500Y-60205600D01*
X52676500Y-60655473D01*
X52656498Y-60723594D01*
X52602842Y-60770087D01*
X52532568Y-60780191D01*
X52467988Y-60750697D01*
X52444708Y-60723913D01*
X52390822Y-60640617D01*
X52390820Y-60640614D01*
X52388014Y-60636277D01*
X52237670Y-60471051D01*
X52233619Y-60467852D01*
X52233615Y-60467848D01*
X52066414Y-60335800D01*
X52066410Y-60335798D01*
X52062359Y-60332598D01*
X52021053Y-60309796D01*
X51971084Y-60259364D01*
X51956312Y-60189921D01*
X51981428Y-60123516D01*
X52008780Y-60096909D01*
X52052603Y-60065650D01*
X52187860Y-59969173D01*
X52216926Y-59940209D01*
X52280034Y-59877321D01*
X52346096Y-59811489D01*
X52349116Y-59807287D01*
X52473435Y-59634277D01*
X52476453Y-59630077D01*
X52482669Y-59617501D01*
X52573136Y-59434453D01*
X52573137Y-59434451D01*
X52575430Y-59429811D01*
X52640370Y-59216069D01*
X52669529Y-58994590D01*
X52671156Y-58928000D01*
X52652852Y-58705361D01*
X52598431Y-58488702D01*
X52509354Y-58283840D01*
X52425079Y-58153571D01*
X52390822Y-58100617D01*
X52390820Y-58100614D01*
X52388014Y-58096277D01*
X52237670Y-57931051D01*
X52233619Y-57927852D01*
X52233615Y-57927848D01*
X52066414Y-57795800D01*
X52066410Y-57795798D01*
X52062359Y-57792598D01*
X52021053Y-57769796D01*
X51971084Y-57719364D01*
X51956312Y-57649921D01*
X51981428Y-57583516D01*
X52008780Y-57556909D01*
X52052603Y-57525650D01*
X52187860Y-57429173D01*
X52238742Y-57378469D01*
X52276616Y-57340727D01*
X52346096Y-57271489D01*
X52349116Y-57267287D01*
X52473435Y-57094277D01*
X52476453Y-57090077D01*
X52487988Y-57066739D01*
X52573136Y-56894453D01*
X52573137Y-56894451D01*
X52575430Y-56889811D01*
X52640370Y-56676069D01*
X52669529Y-56454590D01*
X52671156Y-56388000D01*
X52652852Y-56165361D01*
X52598431Y-55948702D01*
X52509354Y-55743840D01*
X52388014Y-55556277D01*
X52237670Y-55391051D01*
X52233619Y-55387852D01*
X52233615Y-55387848D01*
X52066414Y-55255800D01*
X52066410Y-55255798D01*
X52062359Y-55252598D01*
X52021053Y-55229796D01*
X51971084Y-55179364D01*
X51956312Y-55109921D01*
X51981428Y-55043516D01*
X52008780Y-55016909D01*
X52067154Y-54975271D01*
X52187860Y-54889173D01*
X52346096Y-54731489D01*
X52349116Y-54727287D01*
X52473435Y-54554277D01*
X52476453Y-54550077D01*
X52490083Y-54522500D01*
X52573136Y-54354453D01*
X52573137Y-54354451D01*
X52575430Y-54349811D01*
X52640370Y-54136069D01*
X52669529Y-53914590D01*
X52671156Y-53848000D01*
X52652852Y-53625361D01*
X52598431Y-53408702D01*
X52509354Y-53203840D01*
X52442491Y-53100485D01*
X52390822Y-53020617D01*
X52390820Y-53020614D01*
X52388014Y-53016277D01*
X52384532Y-53012450D01*
X52240798Y-52854488D01*
X52209746Y-52790642D01*
X52218141Y-52720143D01*
X52263317Y-52665375D01*
X52289761Y-52651706D01*
X52396297Y-52611767D01*
X52404705Y-52608615D01*
X52521261Y-52521261D01*
X52608615Y-52404705D01*
X52625019Y-52360948D01*
X52667661Y-52304184D01*
X52734223Y-52279484D01*
X52803571Y-52294692D01*
X52853689Y-52344978D01*
X52869001Y-52405178D01*
X52869001Y-52555095D01*
X52869338Y-52561614D01*
X52879257Y-52657206D01*
X52882149Y-52670600D01*
X52933588Y-52824784D01*
X52939761Y-52837962D01*
X53025063Y-52975807D01*
X53034099Y-52987208D01*
X53148829Y-53101739D01*
X53160240Y-53110751D01*
X53298243Y-53195816D01*
X53311424Y-53201963D01*
X53465710Y-53253138D01*
X53479086Y-53256005D01*
X53573438Y-53265672D01*
X53579854Y-53266000D01*
X53829885Y-53266000D01*
X53845124Y-53261525D01*
X53846329Y-53260135D01*
X53848000Y-53252452D01*
X53848000Y-52130000D01*
X53868002Y-52061879D01*
X53921658Y-52015386D01*
X53974000Y-52004000D01*
X57348884Y-52004000D01*
X57364123Y-51999525D01*
X57365328Y-51998135D01*
X57366999Y-51990452D01*
X57366999Y-51960905D01*
X57366662Y-51954386D01*
X57356743Y-51858794D01*
X57353851Y-51845400D01*
X57302412Y-51691216D01*
X57296239Y-51678038D01*
X57210937Y-51540193D01*
X57201901Y-51528792D01*
X57087172Y-51414262D01*
X57078238Y-51407206D01*
X57037177Y-51349288D01*
X57033947Y-51278365D01*
X57069574Y-51216954D01*
X57077407Y-51210154D01*
X57083348Y-51206478D01*
X57208305Y-51081303D01*
X57226749Y-51051382D01*
X57279522Y-51003890D01*
X57334008Y-50991500D01*
X60407406Y-50991500D01*
X60475527Y-51011502D01*
G37*
%TD.AperFunction*%
%TD*%
M02*
