M48
; DRILL file {KiCad (6.0.10)} date Thu Dec 29 18:40:41 2022
; FORMAT={-:-/ absolute / inch / decimal}
; #@! TF.CreationDate,2022-12-29T18:40:41+01:00
; #@! TF.GenerationSoftware,Kicad,Pcbnew,(6.0.10)
; #@! TF.FileFunction,Plated,1,2,PTH
FMAT,2
INCH
; #@! TA.AperFunction,Plated,PTH,ViaDrill
T1C0.0157
; #@! TA.AperFunction,Plated,PTH,ComponentDrill
T2C0.0394
%
G90
G05
T1
X2.09Y-2.87
X2.1511Y-2.1733
X2.16Y-3.07
X2.1671Y-2.6449
X2.17Y-2.77
X2.2223Y-3.27
X2.2238Y-2.7662
X2.24Y-2.59
X2.24Y-3.08
X2.24Y-3.13
X2.24Y-3.31
X2.25Y-3.41
X2.27Y-2.52
X2.2915Y-2.23
X2.2985Y-2.56
X2.32Y-2.96
X2.33Y-2.78
X2.35Y-3.51
X2.36Y-2.15
X2.36Y-3.42
X2.37Y-3.31
X2.39Y-2.23
X2.39Y-2.29
X2.39Y-3.13
X2.39Y-3.27
X2.4Y-2.39
X2.4Y-2.46
X2.4094Y-3.0794
X2.41Y-2.57
X2.44Y-2.9688
X2.4754Y-2.6522
X2.48Y-2.77
X2.48Y-2.87
T2
X2.02Y-2.02
X2.02Y-2.12
X2.02Y-2.22
X2.02Y-2.32
X2.02Y-2.42
X2.02Y-2.52
X2.02Y-2.62
X2.02Y-2.72
X2.02Y-2.82
X2.02Y-2.92
X2.02Y-3.02
X2.02Y-3.12
X2.02Y-3.22
X2.02Y-3.32
X2.02Y-3.42
X2.02Y-3.52
X2.62Y-2.02
X2.62Y-2.12
X2.62Y-2.22
X2.62Y-2.32
X2.62Y-2.42
X2.62Y-2.52
X2.62Y-2.62
X2.62Y-2.72
X2.62Y-2.82
X2.62Y-2.92
X2.62Y-3.02
X2.62Y-3.12
X2.62Y-3.22
X2.62Y-3.32
X2.62Y-3.42
X2.62Y-3.52
T0
M30
