%TF.GenerationSoftware,KiCad,Pcbnew,(6.0.10)*%
%TF.CreationDate,2022-12-29T18:40:38+01:00*%
%TF.ProjectId,DS1245Y_FRAM,44533132-3435-4595-9f46-52414d2e6b69,rev?*%
%TF.SameCoordinates,Original*%
%TF.FileFunction,Soldermask,Top*%
%TF.FilePolarity,Negative*%
%FSLAX46Y46*%
G04 Gerber Fmt 4.6, Leading zero omitted, Abs format (unit mm)*
G04 Created by KiCad (PCBNEW (6.0.10)) date 2022-12-29 18:40:38*
%MOMM*%
%LPD*%
G01*
G04 APERTURE LIST*
G04 Aperture macros list*
%AMRoundRect*
0 Rectangle with rounded corners*
0 $1 Rounding radius*
0 $2 $3 $4 $5 $6 $7 $8 $9 X,Y pos of 4 corners*
0 Add a 4 corners polygon primitive as box body*
4,1,4,$2,$3,$4,$5,$6,$7,$8,$9,$2,$3,0*
0 Add four circle primitives for the rounded corners*
1,1,$1+$1,$2,$3*
1,1,$1+$1,$4,$5*
1,1,$1+$1,$6,$7*
1,1,$1+$1,$8,$9*
0 Add four rect primitives between the rounded corners*
20,1,$1+$1,$2,$3,$4,$5,0*
20,1,$1+$1,$4,$5,$6,$7,0*
20,1,$1+$1,$6,$7,$8,$9,0*
20,1,$1+$1,$8,$9,$2,$3,0*%
G04 Aperture macros list end*
%ADD10RoundRect,0.250000X-0.475000X0.250000X-0.475000X-0.250000X0.475000X-0.250000X0.475000X0.250000X0*%
%ADD11RoundRect,0.250000X-0.262500X-0.450000X0.262500X-0.450000X0.262500X0.450000X-0.262500X0.450000X0*%
%ADD12RoundRect,0.250000X-0.250000X-0.475000X0.250000X-0.475000X0.250000X0.475000X-0.250000X0.475000X0*%
%ADD13RoundRect,0.075000X-0.075000X0.700000X-0.075000X-0.700000X0.075000X-0.700000X0.075000X0.700000X0*%
%ADD14R,2.000000X1.500000*%
%ADD15R,2.000000X3.800000*%
%ADD16R,1.700000X1.700000*%
%ADD17O,1.700000X1.700000*%
G04 APERTURE END LIST*
D10*
%TO.C,C2*%
X54102000Y-50358000D03*
X54102000Y-52258000D03*
%TD*%
D11*
%TO.C,R16*%
X56999500Y-60706000D03*
X58824500Y-60706000D03*
%TD*%
D12*
%TO.C,C4*%
X53660000Y-63500000D03*
X55560000Y-63500000D03*
%TD*%
D13*
%TO.C,U2*%
X62170000Y-68505000D03*
X61670000Y-68505000D03*
X61170000Y-68505000D03*
X60670000Y-68505000D03*
X60170000Y-68505000D03*
X59670000Y-68505000D03*
X59170000Y-68505000D03*
X58670000Y-68505000D03*
X58170000Y-68505000D03*
X57670000Y-68505000D03*
X57170000Y-68505000D03*
X56670000Y-68505000D03*
X56170000Y-68505000D03*
X55670000Y-68505000D03*
X55170000Y-68505000D03*
X54670000Y-68505000D03*
X54670000Y-81355000D03*
X55170000Y-81355000D03*
X55670000Y-81355000D03*
X56170000Y-81355000D03*
X56670000Y-81355000D03*
X57170000Y-81355000D03*
X57670000Y-81355000D03*
X58170000Y-81355000D03*
X58670000Y-81355000D03*
X59170000Y-81355000D03*
X59670000Y-81355000D03*
X60170000Y-81355000D03*
X60670000Y-81355000D03*
X61170000Y-81355000D03*
X61670000Y-81355000D03*
X62170000Y-81355000D03*
%TD*%
D10*
%TO.C,C1*%
X56134000Y-50358000D03*
X56134000Y-52258000D03*
%TD*%
D12*
%TO.C,C3*%
X53660000Y-65532000D03*
X55560000Y-65532000D03*
%TD*%
D14*
%TO.C,U1*%
X62332000Y-58180000D03*
D15*
X56032000Y-55880000D03*
D14*
X62332000Y-55880000D03*
X62332000Y-53580000D03*
%TD*%
D11*
%TO.C,R15*%
X53697500Y-60706000D03*
X55522500Y-60706000D03*
%TD*%
D16*
%TO.C,J1*%
X51308000Y-51308000D03*
D17*
X51308000Y-53848000D03*
X51308000Y-56388000D03*
X51308000Y-58928000D03*
X51308000Y-61468000D03*
X51308000Y-64008000D03*
X51308000Y-66548000D03*
X51308000Y-69088000D03*
X51308000Y-71628000D03*
X51308000Y-74168000D03*
X51308000Y-76708000D03*
X51308000Y-79248000D03*
X51308000Y-81788000D03*
X51308000Y-84328000D03*
X51308000Y-86868000D03*
X51308000Y-89408000D03*
%TD*%
D16*
%TO.C,J2*%
X66548000Y-89408000D03*
D17*
X66548000Y-86868000D03*
X66548000Y-84328000D03*
X66548000Y-81788000D03*
X66548000Y-79248000D03*
X66548000Y-76708000D03*
X66548000Y-74168000D03*
X66548000Y-71628000D03*
X66548000Y-69088000D03*
X66548000Y-66548000D03*
X66548000Y-64008000D03*
X66548000Y-61468000D03*
X66548000Y-58928000D03*
X66548000Y-56388000D03*
X66548000Y-53848000D03*
X66548000Y-51308000D03*
%TD*%
M02*
